<?xml version="1.0" standalone="no"?>
<!DOCTYPE svg PUBLIC "-//W3C//DTD SVG 20010904//EN"
 "http://www.w3.org/TR/2001/REC-SVG-20010904/DTD/svg10.dtd">
<svg version="1.0" xmlns="http://www.w3.org/2000/svg"
 width="500.000000pt" height="500.000000pt" viewBox="0 0 500.000000 500.000000"
 preserveAspectRatio="xMidYMid meet">
<metadata>
Created by potrace 1.11, written by Peter Selinger 2001-2013
</metadata>
<g transform="translate(0.000000,500.000000) scale(0.100000,-0.100000)"
fill="#000000" stroke="none">
<path d="M2355 4765 c-89 -19 -120 -30 -193 -71 -118 -64 -245 -180 -292 -263
-8 -15 -27 -43 -42 -62 -63 -81 -162 -323 -193 -470 -67 -317 -41 -662 72
-949 18 -47 33 -86 33 -86 0 -1 -23 -17 -51 -35 -58 -37 -90 -83 -113 -159
-22 -73 -15 -254 13 -378 12 -51 22 -128 24 -170 2 -72 1 -77 -19 -80 -16 -2
-23 -12 -27 -35 -3 -18 -3 -304 0 -637 l4 -605 -31 -85 c-38 -105 -71 -201
-103 -305 -13 -44 -49 -146 -80 -227 l-55 -148 388 0 c214 0 391 3 393 7 3 5
8 57 11 116 4 59 9 113 11 120 2 7 6 53 10 102 7 111 14 198 20 250 3 22 8 94
12 160 7 117 7 198 3 1075 -1 259 2 435 8 450 12 31 60 73 75 67 23 -9 49
-106 49 -180 0 -115 -1 -119 -21 -124 -11 -3 -22 -11 -25 -19 -3 -8 -5 -313
-4 -677 2 -364 -1 -675 -5 -692 -4 -16 -12 -64 -18 -105 -5 -41 -12 -86 -14
-100 -2 -14 -14 -83 -25 -155 -11 -72 -23 -141 -25 -155 -3 -14 -8 -47 -11
-75 -4 -27 -8 -53 -11 -57 -2 -5 185 -8 416 -8 232 0 421 1 421 3 0 2 -13 68
-29 148 -17 79 -50 250 -75 379 l-46 235 -2 652 c-1 358 0 655 4 658 4 4 24 4
45 1 l38 -7 0 -617 c0 -339 3 -635 7 -657 3 -22 25 -186 47 -365 23 -179 43
-336 45 -350 3 -14 5 -37 5 -52 l1 -28 369 0 370 0 -40 113 c-23 61 -68 195
-100 297 -33 102 -73 226 -90 275 -16 50 -30 101 -30 115 -1 46 -1 794 1 834
1 28 8 46 26 63 14 13 27 23 29 23 2 0 5 -168 5 -372 2 -577 -2 -532 68 -753
156 -489 182 -573 182 -584 0 -8 95 -11 350 -11 193 0 350 2 350 6 0 3 -24 55
-54 117 -30 62 -64 136 -75 164 -11 29 -69 150 -128 269 l-107 216 0 656 c0
362 4 691 9 732 14 107 11 201 -6 240 -1 3 -3 25 -4 50 -6 84 -42 224 -75 291
-21 39 -110 113 -158 130 -43 15 -47 36 -21 121 16 55 20 89 17 140 -6 72 -22
107 -64 135 -25 16 -28 16 -62 -3 -19 -10 -44 -35 -54 -54 -28 -51 -21 -157
15 -229 40 -78 37 -101 -19 -130 -53 -28 -100 -80 -134 -148 -23 -44 -25 -59
-25 -188 1 -113 5 -156 23 -225 26 -95 28 -244 5 -246 -7 -1 -18 -2 -24 -3 -6
0 -9 -7 -6 -13 2 -7 1 -21 -2 -32 -7 -18 -8 -18 -26 0 -10 11 -21 17 -24 14
-3 -3 -7 10 -9 28 -2 17 -7 32 -12 32 -4 0 -5 30 -2 68 6 71 5 419 -1 487 -15
167 -127 323 -220 309 -11 -1 -17 2 -14 9 35 93 83 284 94 377 10 82 10 334 1
420 -20 187 -79 376 -176 560 -117 222 -314 396 -518 455 -74 21 -203 26 -279
10z"/>
<path d="M4412 3249 c-39 -38 -47 -85 -37 -214 5 -69 12 -101 25 -118 23 -29
19 -36 -50 -80 -62 -40 -82 -61 -113 -120 -20 -38 -22 -58 -23 -197 -1 -146 7
-220 26 -220 15 0 29 -55 31 -120 3 -126 1 -140 -20 -140 -12 0 -21 -9 -24
-27 -3 -16 -4 -298 -1 -628 l4 -600 39 -75 c21 -41 52 -100 69 -131 16 -30 33
-66 37 -80 7 -24 88 -190 191 -391 l54 -108 190 0 190 0 0 253 0 252 -37 51
c-69 93 -104 139 -116 154 -49 61 -47 22 -49 715 -2 610 -3 645 -20 645 -14 0
-18 9 -19 38 -2 60 1 83 18 152 20 79 23 363 5 425 -20 69 -62 122 -119 152
-29 16 -53 33 -53 38 0 6 15 16 34 23 18 7 42 22 52 33 19 21 19 22 -3 15 -24
-8 -61 8 -80 33 -6 8 -14 38 -18 65 -16 123 -50 206 -92 225 -38 17 -57 13
-91 -20z"/>
<path d="M1093 3238 c-18 -13 -35 -29 -37 -36 -13 -32 -16 -131 -6 -172 15
-60 14 -79 -6 -101 -9 -10 -14 -25 -11 -33 3 -8 -1 -20 -9 -26 -8 -7 -14 -22
-14 -34 0 -11 -14 -35 -32 -51 -47 -44 -75 -117 -82 -210 -10 -133 -10 -207 1
-213 13 -10 53 -153 48 -177 -2 -11 -4 -50 -4 -87 -1 -60 -3 -68 -20 -68 -13
0 -20 -9 -24 -32 -3 -18 -3 -305 -1 -638 l3 -605 -184 -370 c-102 -204 -185
-373 -185 -378 0 -4 142 -7 315 -7 292 0 316 1 321 18 4 9 12 31 19 47 8 17
22 53 33 80 11 28 27 64 36 80 9 17 16 34 16 38 0 4 8 27 19 50 10 23 33 78
51 122 35 87 46 113 82 195 51 114 53 130 51 525 -3 933 -2 895 -18 895 -19 0
-19 65 0 215 8 61 16 121 17 135 2 28 -16 212 -27 276 -4 25 -52 123 -69 139
-19 20 -73 45 -80 38 -6 -6 -10 12 -7 30 1 4 -10 12 -23 18 -14 7 -25 19 -26
28 -3 35 -2 89 1 156 2 50 -2 79 -13 100 -25 46 -56 75 -81 75 -12 0 -37 -10
-54 -22z"/>
<path d="M432 3228 c-53 -38 -73 -158 -38 -229 9 -18 13 -35 8 -38 -16 -11
-22 -43 -11 -63 8 -15 14 -17 22 -9 18 18 29 12 25 -15 -2 -20 -12 -29 -41
-39 -84 -29 -147 -110 -167 -214 -16 -88 -21 -271 -7 -271 24 0 53 -129 53
-234 -1 -88 -3 -99 -19 -102 -11 -1 -21 -5 -23 -7 -6 -6 -8 -368 -5 -870 l2
-389 -27 -35 c-14 -19 -66 -75 -115 -124 l-89 -90 0 -249 0 -250 229 0 230 0
79 163 c43 90 82 175 85 189 8 29 75 177 143 311 l44 89 1 241 c4 578 -2 1047
-11 1047 -10 0 -8 30 10 165 10 81 0 300 -20 404 -13 68 -46 144 -76 172 -13
12 -24 19 -24 16 0 -4 -17 3 -37 16 -21 13 -51 28 -68 34 -37 12 -43 45 -21
131 21 80 20 157 -3 209 -30 66 -73 79 -129 41z"/>
<path d="M1252 2994 c-7 -8 -8 -14 -3 -14 10 0 25 19 20 25 -2 1 -10 -3 -17
-11z"/>
</g>
</svg>
