<?xml version="1.0" standalone="no"?>
<!DOCTYPE svg PUBLIC "-//W3C//DTD SVG 20010904//EN"
 "http://www.w3.org/TR/2001/REC-SVG-20010904/DTD/svg10.dtd">
<svg version="1.0" xmlns="http://www.w3.org/2000/svg"
 width="3592.000000pt" height="3592.000000pt" viewBox="0 0 3592.000000 3592.000000"
 preserveAspectRatio="xMidYMid meet">
<metadata>
Created by potrace 1.14, written by Peter Selinger 2001-2017
</metadata>
<g transform="translate(0.000000,3592.000000) scale(0.100000,-0.100000)"
fill="#000000" stroke="none">
<path d="M17993 30335 c0 -8 5 -13 11 -12 6 1 10 -5 8 -13 -2 -8 -1 -12 3 -8
10 10 45 -24 38 -36 -3 -6 -3 -8 2 -4 7 7 35 -14 35 -27 0 -4 11 -16 25 -27
14 -11 22 -25 18 -31 -3 -7 -3 -9 2 -5 9 8 42 -31 37 -44 -1 -5 1 -7 6 -5 4 1
7 -1 7 -5 0 -4 10 -15 23 -23 12 -9 22 -22 22 -29 0 -8 7 -17 16 -20 9 -4 14
-9 10 -13 -3 -3 3 -12 14 -20 11 -8 20 -21 20 -29 0 -8 4 -14 8 -14 9 0 40
-50 40 -64 0 -5 7 -13 16 -18 9 -5 16 -15 16 -22 0 -8 7 -19 15 -26 9 -7 13
-15 11 -18 -3 -2 2 -11 10 -19 8 -8 11 -19 8 -25 -4 -7 -2 -8 4 -4 11 6 16 -6
13 -26 -4 -25 62 12 72 40 1 4 5 6 10 4 4 -1 6 2 5 7 -2 5 8 18 21 30 13 12
20 21 16 21 -5 0 1 9 13 20 12 11 26 20 32 20 6 0 9 4 5 9 -3 5 7 19 21 30 15
12 23 21 18 21 -4 0 -2 6 5 13 6 6 17 12 24 12 7 0 12 7 12 15 1 8 6 14 13 13
7 -2 11 3 10 10 -2 6 3 11 10 9 8 -1 11 1 8 6 -5 8 28 42 40 42 3 0 26 21 50
47 24 25 44 43 44 38 0 -4 14 8 31 26 17 19 27 27 23 19 -4 -8 6 -1 23 15 17
17 30 31 29 31 0 1 -26 5 -56 8 -30 3 -71 8 -90 11 -67 8 -135 17 -170 20 -19
2 -57 6 -85 9 -27 4 -77 9 -110 12 -33 2 -85 7 -115 10 -68 6 -141 12 -249 19
-45 3 -86 7 -90 10 -4 2 -8 -2 -8 -10z"/>
<path d="M15989 30230 c-32 -3 -73 -5 -93 -5 -20 1 -36 -2 -36 -5 0 -3 -8 -6
-17 -6 -17 -1 -43 -5 -117 -19 -16 -4 -33 -8 -38 -11 -4 -3 -18 -7 -30 -10
-32 -7 -40 -10 -71 -22 -16 -7 -35 -12 -43 -12 -8 0 -14 -5 -14 -11 0 -5 -4
-7 -10 -4 -5 3 -10 1 -10 -5 0 -6 -4 -9 -9 -6 -5 3 -21 -4 -37 -16 -16 -13
-25 -16 -20 -8 5 11 4 11 -6 -1 -7 -9 -19 -14 -27 -11 -8 3 -11 0 -7 -7 4 -6
1 -11 -8 -11 -9 0 -16 -5 -16 -11 0 -5 -4 -7 -10 -4 -5 3 -10 1 -10 -5 0 -6
-4 -8 -10 -5 -5 3 -10 1 -10 -4 0 -6 -5 -11 -11 -11 -6 0 -20 -10 -31 -22 -11
-13 -16 -16 -12 -8 3 8 -7 2 -24 -15 -51 -49 -71 -65 -83 -65 -5 0 -7 -4 -4
-10 3 -5 -1 -10 -9 -10 -8 0 -18 -5 -22 -12 -5 -7 -3 -8 6 -3 9 5 11 4 6 -3
-4 -7 -14 -12 -22 -12 -8 0 -13 -3 -11 -7 6 -10 -19 -34 -27 -26 -3 4 -6 0 -6
-8 0 -8 -9 -20 -21 -27 -12 -7 -18 -16 -15 -19 3 -3 -8 -17 -24 -31 -17 -15
-30 -32 -30 -39 0 -7 -5 -13 -12 -13 -6 0 -8 -3 -5 -7 4 -3 -2 -13 -13 -20
-11 -8 -18 -18 -15 -23 3 -4 -2 -11 -11 -14 -8 -3 -12 -10 -9 -16 3 -5 1 -10
-4 -10 -6 0 -11 -7 -11 -15 0 -8 -5 -15 -12 -15 -6 0 -9 -3 -5 -6 3 -3 -3 -15
-13 -27 -11 -11 -17 -24 -14 -29 3 -4 -2 -11 -10 -14 -9 -3 -13 -10 -10 -15 3
-5 0 -9 -5 -9 -6 0 -10 -3 -9 -7 2 -10 -45 -106 -56 -114 -5 -4 -5 -12 -2 -18
4 -6 2 -11 -4 -11 -6 0 -8 -4 -5 -10 3 -5 1 -10 -5 -10 -6 0 -8 -4 -5 -10 3
-5 1 -10 -5 -10 -6 0 -9 -4 -5 -9 3 -5 1 -12 -5 -16 -6 -4 -8 -11 -5 -16 4 -5
1 -9 -5 -9 -6 0 -9 -4 -5 -9 3 -5 1 -12 -5 -16 -6 -4 -8 -10 -5 -15 3 -5 1
-11 -5 -15 -6 -4 -8 -11 -5 -16 4 -5 1 -9 -4 -9 -6 0 -10 -3 -10 -7 1 -5 0
-11 -1 -15 -1 -5 -4 -12 -5 -18 -1 -5 -4 -12 -5 -15 -1 -3 -4 -9 -5 -15 -1 -5
-3 -11 -5 -12 -2 -4 -11 -41 -12 -55 -1 -7 -5 -13 -9 -13 -5 0 -6 -7 -3 -15 4
-8 1 -15 -4 -15 -6 0 -9 -9 -7 -20 2 -11 1 -20 -3 -20 -4 0 -9 -8 -10 -17 -3
-32 -7 -48 -16 -61 -4 -7 -6 -16 -3 -19 3 -2 -1 -23 -9 -45 -7 -21 -13 -42
-13 -46 1 -4 0 -9 -1 -12 -1 -3 -3 -16 -5 -30 -1 -14 -6 -38 -9 -55 -7 -31
-17 -103 -20 -145 -2 -19 -8 -24 -29 -25 -15 -1 -30 1 -32 6 -12 18 -42 -4
-42 -29 0 -15 -3 -85 -7 -157 -4 -71 -9 -168 -11 -215 -2 -47 -6 -128 -9 -180
-3 -52 -9 -149 -12 -215 -3 -66 -7 -151 -9 -190 -8 -147 -24 -460 -30 -600 -3
-55 -7 -140 -10 -190 -3 -49 -8 -133 -10 -185 -6 -108 -14 -264 -20 -390 -10
-194 -15 -291 -20 -395 -2 -60 -7 -150 -10 -200 -3 -49 -8 -130 -10 -180 -2
-49 -7 -142 -10 -205 -4 -63 -8 -149 -10 -190 -2 -41 -6 -129 -10 -195 -3 -66
-8 -158 -11 -205 -2 -47 -6 -128 -9 -180 -3 -52 -7 -135 -10 -185 -9 -195 -37
-759 -50 -995 -3 -58 -8 -152 -11 -210 -2 -58 -7 -143 -9 -190 -3 -47 -7 -130
-10 -185 -2 -55 -7 -147 -10 -205 -3 -58 -8 -143 -10 -190 -2 -47 -6 -137 -10
-200 -4 -63 -8 -153 -10 -200 -2 -47 -7 -130 -10 -185 -3 -55 -8 -143 -10
-195 -2 -52 -7 -142 -10 -200 -3 -58 -8 -148 -10 -200 -13 -238 -18 -282 -36
-288 -5 -2 -9 -8 -9 -14 0 -14 -26 -38 -34 -31 -3 4 -6 -1 -6 -10 0 -10 -3
-16 -7 -15 -5 1 -20 -4 -34 -9 -31 -13 -139 -14 -139 -1 0 5 -4 7 -9 3 -14 -8
-87 69 -99 103 -6 17 -8 121 -7 253 4 283 18 1056 30 1744 4 193 8 440 10 550
6 409 16 1026 20 1205 2 102 7 356 10 565 3 209 7 477 10 595 2 118 7 373 10
565 3 193 8 451 10 575 22 1124 22 1327 1 1425 -3 11 -5 28 -5 39 -1 14 -6 17
-27 12 -17 -5 -23 -3 -19 4 3 5 1 10 -4 10 -6 0 -10 3 -9 8 3 10 -42 95 -55
103 -5 4 -7 11 -3 17 3 6 1 14 -7 19 -7 4 -24 29 -37 56 -14 26 -29 47 -33 47
-5 0 -6 4 -3 9 3 5 -1 11 -9 15 -8 3 -15 13 -15 22 0 9 -8 23 -17 31 -11 9
-12 11 -3 7 8 -4 3 5 -12 20 -15 16 -25 33 -21 39 3 5 2 7 -3 4 -6 -3 -16 3
-23 15 -10 16 -10 19 1 13 7 -5 4 1 -7 12 -11 11 -29 32 -40 47 -11 16 -29 38
-40 49 -11 11 -14 17 -5 13 8 -4 0 5 -18 21 -18 15 -32 34 -32 41 0 6 -4 12
-9 12 -5 0 -13 9 -16 20 -4 11 -11 18 -16 15 -5 -4 -9 -2 -9 2 0 5 -25 35 -55
68 -30 32 -55 56 -55 52 0 -4 -13 7 -29 23 -15 17 -33 30 -39 30 -7 0 -17 9
-24 20 -7 11 -18 20 -25 20 -7 0 -13 5 -13 11 0 5 -4 8 -9 4 -6 -3 -14 3 -20
12 -6 10 -11 14 -11 9 0 -4 -11 -1 -25 8 -14 9 -25 14 -25 11 0 -3 -10 0 -22
7 -13 6 -32 13 -43 15 -11 1 -42 5 -70 9 -70 10 -389 10 -455 0 -30 -5 -62 -8
-70 -8 -8 -1 -21 -5 -27 -11 -7 -5 -13 -7 -13 -4 0 3 -21 0 -47 -8 -25 -8 -50
-12 -55 -9 -4 3 -8 1 -8 -4 0 -5 -7 -9 -15 -10 -8 -1 -22 -3 -30 -4 -8 -1 -15
-6 -15 -11 0 -6 -3 -7 -7 -4 -3 4 -12 2 -20 -5 -7 -6 -16 -8 -19 -5 -4 3 -13
-1 -21 -9 -8 -8 -19 -12 -24 -9 -5 4 -9 1 -9 -4 0 -6 -3 -10 -7 -9 -5 1 -18
-3 -29 -10 -12 -6 -24 -8 -28 -5 -3 3 -6 1 -6 -5 0 -7 -5 -12 -11 -12 -6 0
-17 -7 -26 -15 -8 -8 -19 -13 -24 -10 -5 4 -9 2 -9 -2 0 -5 -9 -14 -21 -21
-17 -11 -20 -11 -15 0 4 7 -1 3 -10 -9 -9 -13 -23 -23 -30 -23 -8 0 -14 -5
-14 -10 0 -6 -8 -14 -17 -17 -10 -4 -24 -14 -31 -22 -11 -13 -12 -13 -6 -1 4
8 -6 0 -23 -17 -16 -18 -33 -33 -37 -33 -9 0 -116 -108 -116 -117 0 -3 -12
-18 -27 -34 -16 -15 -33 -34 -39 -41 -12 -15 -36 -98 -49 -170 -3 -15 -9 -38
-15 -52 -5 -15 -8 -26 -5 -26 2 0 -2 -18 -10 -40 -8 -22 -12 -40 -10 -40 3 0
0 -11 -5 -25 -10 -27 -21 -71 -22 -92 -1 -7 -5 -13 -10 -13 -5 0 -7 -4 -4 -9
3 -4 1 -23 -5 -42 -6 -19 -12 -45 -15 -59 -2 -14 -7 -32 -11 -40 -3 -8 -7 -22
-9 -30 -4 -18 -20 -85 -29 -120 -3 -14 -7 -30 -9 -37 -1 -7 -5 -15 -8 -19 -4
-3 -4 -12 -2 -19 3 -7 0 -16 -5 -20 -6 -3 -9 -11 -6 -16 4 -5 3 -15 -1 -21 -5
-7 -9 -19 -10 -28 -3 -20 -12 -55 -14 -55 -1 0 -3 -9 -5 -20 -6 -38 -15 -75
-24 -97 -5 -13 -9 -26 -10 -30 0 -5 -1 -9 -2 -10 0 -2 -2 -12 -4 -23 -5 -27
-13 -60 -15 -60 -1 0 -3 -9 -5 -20 -5 -26 -13 -60 -15 -60 -1 0 -3 -7 -5 -15
-4 -16 -12 -48 -20 -80 -3 -11 -7 -29 -10 -40 -3 -11 -7 -29 -10 -40 -3 -11
-7 -29 -10 -40 -3 -11 -7 -29 -10 -41 -2 -11 -7 -29 -10 -39 -3 -10 -8 -28
-10 -39 -3 -12 -7 -30 -10 -41 -3 -11 -7 -28 -9 -38 -2 -9 -9 -37 -16 -62 -7
-25 -14 -52 -15 -60 -2 -8 -4 -16 -5 -17 -3 -3 -2 -2 -15 -58 -4 -22 -8 -43
-7 -47 1 -5 -2 -8 -6 -8 -4 0 -8 -8 -8 -17 -1 -21 -20 -104 -24 -110 -2 -2 -4
-7 -5 -13 -1 -5 -3 -11 -5 -12 -1 -2 -3 -12 -5 -23 -4 -24 -9 -46 -25 -105 -7
-25 -14 -53 -16 -62 -2 -10 -6 -26 -8 -36 -2 -9 -9 -37 -16 -62 -12 -45 -17
-65 -26 -109 -3 -13 -9 -32 -14 -41 -5 -10 -7 -20 -3 -23 3 -4 0 -13 -7 -22
-7 -8 -10 -15 -7 -15 3 0 1 -16 -5 -36 -5 -20 -12 -46 -14 -58 -8 -31 -12 -50
-14 -56 -1 -3 -2 -8 -1 -12 0 -4 -6 -25 -14 -47 -8 -23 -12 -41 -9 -41 2 0 0
-8 -5 -18 -6 -11 -12 -30 -15 -43 -5 -23 -9 -42 -21 -89 -3 -11 -7 -29 -10
-40 -12 -49 -16 -67 -21 -90 -3 -14 -8 -34 -11 -45 -4 -11 -8 -23 -9 -27 -1
-5 -2 -9 -4 -10 -1 -2 -3 -10 -5 -18 -2 -8 -6 -26 -9 -40 -12 -56 -14 -67 -27
-110 -7 -25 -14 -52 -15 -61 0 -9 -5 -29 -9 -45 -5 -16 -9 -32 -10 -36 -2 -5
-3 -9 -4 -10 -2 -2 -5 -14 -8 -28 -7 -39 -11 -55 -13 -55 -1 0 -3 -7 -5 -15
-13 -60 -19 -84 -50 -200 -2 -8 -4 -15 -5 -15 -2 0 -7 -24 -15 -70 -4 -22 -11
-48 -16 -57 -5 -9 -9 -28 -9 -42 0 -14 -4 -27 -10 -31 -5 -3 -7 -12 -3 -20 3
-8 1 -15 -5 -15 -5 0 -9 -6 -9 -12 2 -25 -15 -108 -24 -113 -4 -3 -6 -12 -3
-19 3 -8 1 -17 -5 -20 -6 -4 -8 -13 -4 -21 3 -8 1 -15 -5 -15 -6 0 -8 -8 -5
-19 3 -10 0 -22 -6 -25 -5 -4 -8 -13 -5 -20 3 -8 1 -17 -5 -20 -6 -4 -8 -13
-5 -20 3 -8 1 -17 -5 -20 -6 -4 -8 -13 -5 -20 3 -8 0 -17 -5 -21 -6 -3 -9 -11
-6 -16 4 -5 3 -15 -2 -21 -4 -7 -8 -17 -10 -23 -10 -46 -13 -59 -18 -75 -3
-10 -8 -28 -10 -39 -3 -12 -7 -30 -10 -41 -3 -11 -7 -29 -10 -40 -3 -11 -7
-29 -10 -40 -3 -11 -7 -29 -10 -41 -2 -11 -7 -29 -10 -39 -3 -10 -8 -28 -10
-39 -3 -12 -7 -30 -10 -41 -3 -11 -7 -29 -10 -40 -3 -11 -7 -29 -10 -40 -3
-11 -7 -29 -10 -40 -3 -11 -7 -29 -10 -40 -11 -45 -16 -66 -21 -87 -2 -12 -9
-34 -14 -48 -5 -14 -8 -25 -5 -25 2 0 -3 -19 -11 -42 -8 -24 -17 -59 -20 -78
-4 -19 -10 -42 -14 -50 -4 -8 -8 -18 -9 -22 -1 -5 -1 -9 -2 -10 0 -2 -2 -12
-4 -23 -2 -11 -6 -29 -8 -40 -22 -86 -39 -155 -43 -180 -3 -16 -9 -31 -14 -33
-4 -2 -6 -12 -3 -22 3 -11 1 -20 -4 -20 -5 0 -9 -8 -9 -17 -2 -27 -13 -79 -24
-107 -5 -15 -8 -26 -5 -26 2 0 -2 -18 -10 -40 -8 -22 -12 -40 -10 -40 2 0 -2
-18 -10 -40 -8 -22 -12 -40 -10 -40 3 0 0 -12 -6 -27 -6 -16 -13 -36 -15 -45
-2 -10 -6 -28 -10 -40 -3 -13 -7 -34 -10 -48 -2 -14 -7 -32 -10 -40 -3 -8 -8
-28 -11 -45 -2 -16 -8 -34 -13 -39 -5 -5 -6 -15 -3 -22 3 -8 0 -14 -7 -14 -6
0 -8 -4 -5 -10 5 -8 -6 -65 -23 -110 -3 -8 -4 -21 -3 -27 1 -7 -3 -13 -9 -13
-6 0 -8 -5 -5 -10 4 -6 1 -25 -5 -44 -11 -35 -18 -63 -26 -111 -3 -16 -9 -34
-14 -39 -5 -5 -6 -14 -4 -21 3 -7 1 -16 -5 -19 -6 -4 -8 -13 -4 -21 3 -8 1
-15 -4 -15 -5 0 -9 -10 -10 -22 -1 -13 -3 -32 -6 -43 -3 -11 -13 -49 -22 -85
-9 -36 -19 -72 -22 -80 -3 -8 -8 -26 -10 -40 -2 -14 -6 -32 -10 -40 -3 -8 -7
-19 -8 -25 -1 -5 -3 -12 -4 -15 -2 -3 -4 -14 -6 -25 -7 -39 -16 -80 -21 -95
-3 -8 -8 -26 -10 -39 -3 -14 -8 -29 -11 -34 -3 -6 -7 -26 -9 -45 -2 -20 -7
-38 -11 -41 -4 -3 -9 -17 -11 -31 -4 -46 -5 -50 -11 -50 -3 0 -7 -16 -8 -36
-1 -20 -6 -41 -12 -47 -5 -5 -7 -15 -5 -22 3 -7 1 -16 -5 -19 -6 -4 -8 -13 -4
-21 3 -8 0 -15 -7 -15 -6 0 -8 -4 -5 -10 3 -5 3 -16 -1 -22 -5 -7 -9 -19 -10
-28 -1 -8 -5 -25 -8 -37 -11 -41 -17 -68 -22 -93 -2 -14 -7 -32 -11 -40 -3 -8
-7 -22 -9 -30 -5 -25 -12 -55 -14 -55 -1 0 -3 -15 -6 -34 -2 -19 -9 -39 -14
-46 -5 -7 -7 -14 -4 -17 3 -3 -1 -22 -10 -41 -8 -19 -12 -37 -10 -40 3 -2 0
-16 -6 -31 -5 -15 -12 -39 -15 -54 -8 -37 -13 -57 -15 -57 -1 0 -3 -13 -5 -29
-5 -40 -17 -44 -83 -34 -31 4 -68 10 -82 12 -14 2 -83 14 -155 25 -71 12 -139
24 -150 26 -11 1 -100 18 -198 36 l-178 33 4 30 c3 17 7 38 11 46 3 8 8 26 10
40 3 14 9 39 15 57 5 17 7 34 3 37 -3 3 -1 6 4 6 5 0 10 8 11 18 0 9 4 27 7
40 3 12 8 31 11 42 3 11 8 30 11 43 3 12 7 30 7 40 1 9 5 17 9 17 4 0 5 9 3
20 -2 11 0 20 5 20 4 0 7 8 5 18 -1 9 0 22 4 27 3 6 6 15 8 20 1 6 5 21 8 35
4 14 8 33 8 43 1 9 4 17 8 17 4 0 6 8 4 18 -1 9 2 23 8 30 5 6 7 12 3 12 -3 0
-1 12 5 28 6 15 13 36 15 47 3 17 11 50 20 88 1 4 2 8 3 10 2 1 5 13 8 27 7
39 11 55 13 55 1 0 4 11 7 25 7 39 11 55 13 55 2 0 5 14 14 53 3 13 7 31 10
40 3 9 8 31 11 47 8 41 13 60 16 60 1 0 3 9 5 20 1 11 10 47 19 80 24 85 27
98 28 118 1 9 4 17 7 17 3 0 7 10 7 23 1 12 13 61 26 110 14 48 23 87 21 87
-2 0 1 12 7 28 6 15 12 34 14 43 2 8 11 46 20 83 9 37 18 72 19 79 1 7 5 18 9
25 5 6 5 17 2 22 -3 6 -1 10 6 10 7 0 10 2 7 6 -5 4 -1 28 18 99 5 20 14 62
18 80 1 6 5 16 9 23 5 6 5 17 2 22 -3 6 -2 10 4 10 5 0 8 9 6 20 -2 11 0 20 5
20 5 0 7 9 5 20 -2 11 1 20 6 20 6 0 7 5 4 10 -4 6 -2 16 3 23 6 7 11 17 11
22 1 8 11 64 16 85 1 3 7 25 14 50 7 25 15 54 17 65 6 30 12 54 28 115 8 30
17 66 20 80 3 14 14 58 25 98 10 39 17 72 16 72 -2 0 3 16 11 36 8 20 13 39
10 42 -3 3 -1 10 4 17 5 6 10 26 12 43 1 18 5 32 8 32 4 0 7 6 7 13 0 6 15 68
33 137 17 69 34 134 36 145 6 32 31 131 49 198 12 41 17 63 20 82 2 11 4 20 5
20 2 0 7 19 15 58 4 22 3 27 -7 21 -7 -5 -22 -10 -32 -11 -11 -2 -25 -8 -32
-14 -7 -6 -17 -9 -21 -6 -4 3 -19 0 -33 -6 -14 -5 -34 -12 -44 -14 -11 -2 -25
-8 -33 -14 -7 -6 -13 -9 -13 -5 0 3 -16 0 -35 -8 -19 -8 -35 -13 -35 -11 0 4
-65 -17 -130 -42 -8 -3 -19 -7 -25 -8 -5 0 -23 -7 -40 -14 -16 -7 -40 -15 -51
-17 -12 -2 -39 -11 -60 -21 -22 -9 -44 -18 -50 -19 -27 -5 -140 -47 -151 -56
-7 -6 -13 -8 -13 -4 0 4 -13 0 -29 -8 -16 -9 -31 -12 -35 -9 -3 4 -6 1 -6 -6
0 -7 -4 -10 -9 -6 -5 3 -12 1 -16 -5 -4 -6 -11 -8 -16 -5 -5 4 -9 2 -9 -2 0
-5 -10 -9 -22 -10 -11 -1 -24 -7 -28 -14 -4 -6 -13 -8 -19 -5 -6 4 -11 2 -11
-4 0 -6 -4 -8 -10 -5 -5 3 -10 2 -10 -2 0 -5 -10 -9 -22 -10 -11 -1 -25 -8
-29 -15 -5 -7 -9 -9 -9 -4 0 5 -6 3 -13 -3 -8 -6 -17 -8 -20 -4 -4 3 -7 1 -7
-5 0 -7 -3 -11 -7 -10 -16 3 -63 -15 -63 -24 0 -5 -4 -7 -9 -3 -5 3 -12 1 -16
-5 -4 -6 -11 -8 -16 -5 -5 4 -9 1 -9 -5 0 -6 -5 -8 -11 -4 -6 3 -14 3 -18 -2
-3 -5 -33 -20 -66 -33 -33 -14 -63 -29 -67 -35 -4 -6 -8 -8 -8 -3 0 4 -15 0
-32 -10 -18 -9 -35 -18 -38 -18 -3 0 -15 -6 -26 -13 -12 -6 -24 -8 -28 -5 -3
3 -6 1 -6 -6 0 -7 -4 -9 -10 -6 -5 3 -10 1 -10 -5 0 -6 -4 -8 -10 -5 -5 3 -10
1 -10 -6 0 -7 -3 -10 -6 -6 -3 3 -28 -8 -56 -24 -27 -16 -46 -24 -42 -17 4 7
-5 2 -20 -12 -15 -14 -28 -23 -29 -21 -3 8 -107 -42 -107 -50 0 -5 -7 -6 -15
-3 -8 4 -15 1 -15 -4 0 -6 -16 -16 -35 -23 -19 -7 -35 -17 -35 -21 0 -4 -3 -7
-7 -6 -11 2 -85 -34 -101 -49 -7 -7 -20 -13 -28 -13 -8 0 -14 -5 -14 -11 0 -5
-4 -8 -9 -5 -5 3 -14 -1 -21 -9 -7 -8 -16 -12 -21 -9 -5 3 -9 1 -9 -5 0 -6
-11 -13 -24 -17 -14 -3 -27 -12 -30 -20 -3 -8 -12 -11 -23 -7 -10 3 -15 3 -11
-2 4 -4 -15 -19 -42 -33 -28 -14 -50 -30 -50 -34 0 -5 -4 -7 -10 -3 -5 3 -18
-2 -28 -12 -10 -10 -24 -19 -31 -21 -7 -1 -20 -9 -28 -17 -8 -8 -21 -15 -29
-15 -8 0 -14 -3 -14 -8 0 -4 -20 -18 -45 -32 -25 -14 -45 -29 -45 -34 0 -5 -3
-7 -6 -3 -3 3 -15 -3 -27 -14 -11 -10 -27 -19 -34 -19 -7 0 -13 -4 -13 -10 0
-5 -7 -10 -15 -10 -7 0 -19 -8 -24 -17 -6 -10 -11 -14 -11 -10 0 8 -21 -7 -48
-35 -9 -10 -22 -18 -28 -18 -6 0 -23 -11 -37 -24 -14 -13 -28 -21 -31 -19 -3
3 -8 -2 -12 -11 -3 -9 -10 -13 -15 -11 -4 3 -14 -3 -21 -15 -7 -11 -21 -20
-32 -20 -11 0 -16 -3 -13 -6 4 -4 -14 -20 -38 -36 -25 -17 -45 -34 -45 -40 0
-5 -4 -7 -9 -3 -6 3 -14 -3 -20 -12 -6 -10 -11 -14 -11 -9 0 4 -12 -6 -27 -23
-15 -17 -32 -31 -37 -31 -5 0 -22 -13 -37 -30 -16 -16 -29 -27 -29 -23 0 3
-11 -6 -25 -21 -13 -14 -27 -26 -31 -26 -4 0 -26 -20 -50 -44 -23 -24 -45 -42
-47 -40 -3 3 -14 -6 -25 -20 -11 -15 -25 -26 -32 -26 -6 0 -8 -5 -5 -10 3 -6
-5 -14 -19 -20 -14 -5 -26 -12 -26 -15 0 -4 6 -3 13 1 8 5 7 2 -2 -9 -8 -10
-16 -15 -19 -12 -3 2 -15 -9 -27 -25 -12 -16 -24 -28 -26 -27 -2 2 -12 -5 -21
-15 -10 -10 -16 -18 -13 -18 2 0 -28 -33 -68 -74 -115 -118 -168 -176 -161
-176 3 0 -7 -12 -23 -27 -16 -16 -32 -36 -36 -45 -3 -10 -12 -15 -19 -12 -26
11 -251 304 -546 711 -173 239 -742 1017 -751 1025 -4 5 -62 -33 -129 -82 -67
-50 -125 -90 -129 -90 -5 0 -3 4 3 8 20 13 117 147 131 179 7 18 13 44 13 57
0 21 -93 372 -155 581 -8 28 -26 93 -40 145 -14 52 -43 158 -65 235 -40 144
-52 186 -94 340 -13 50 -40 147 -60 218 -20 70 -52 184 -72 255 -38 136 -61
177 -123 217 -41 28 -65 32 -227 39 -61 3 -118 8 -125 10 -8 3 -38 7 -67 10
-75 9 -115 15 -222 37 -248 51 -297 59 -381 61 -107 3 -121 -7 -114 -76 22
-218 23 -365 5 -434 -7 -26 -28 -77 -46 -114 -39 -77 -50 -143 -34 -192 9 -28
95 -151 167 -241 5 -5 51 -66 103 -135 52 -69 132 -174 178 -235 46 -60 93
-123 105 -139 12 -16 31 -41 43 -55 19 -24 86 -112 545 -720 148 -196 207
-258 236 -247 7 3 15 1 17 -3 3 -5 -28 -32 -69 -62 -41 -29 -75 -56 -75 -60 0
-16 1009 -1384 1169 -1584 74 -93 151 -190 170 -215 19 -25 39 -50 45 -56 6
-6 25 -29 41 -50 72 -93 241 -278 343 -375 527 -505 1229 -850 2287 -1124 241
-62 734 -169 925 -200 19 -3 42 -8 50 -10 8 -2 33 -6 55 -10 22 -3 90 -14 150
-25 106 -18 143 -24 223 -35 20 -3 60 -10 87 -15 28 -5 164 -25 303 -45 140
-19 257 -37 260 -39 4 -2 36 -7 72 -11 64 -6 81 -8 170 -19 25 -3 68 -8 95
-11 28 -3 66 -8 85 -10 19 -3 62 -7 95 -10 33 -3 76 -8 95 -10 42 -5 224 -24
295 -30 28 -3 100 -9 160 -14 61 -6 142 -13 180 -17 39 -3 90 -7 115 -9 25 -2
79 -7 120 -10 41 -3 102 -8 135 -10 33 -3 87 -7 120 -10 33 -2 96 -7 140 -10
44 -3 105 -7 135 -10 30 -2 89 -7 130 -10 204 -16 286 -24 620 -66 129 -16
246 -31 260 -34 13 -2 42 -7 65 -10 80 -12 156 -25 175 -30 8 -2 35 -7 60 -10
85 -12 446 -86 626 -130 636 -154 1297 -400 1797 -671 534 -289 953 -599 1367
-1014 580 -579 969 -1174 1361 -2080 6 -14 15 -33 20 -42 5 -10 9 -22 9 -28 0
-6 9 -29 19 -53 82 -180 272 -757 365 -1107 63 -239 63 -241 146 -605 10 -47
60 -289 67 -325 2 -14 17 -97 33 -185 16 -88 31 -173 34 -190 3 -16 12 -75 21
-130 33 -212 44 -281 49 -320 3 -22 14 -107 25 -190 185 -1397 255 -2834 276
-5707 l6 -756 -53 -7 c-29 -4 -62 -9 -73 -11 -11 -2 -108 -16 -215 -29 -264
-35 -257 -34 -330 -40 -36 -3 -81 -8 -100 -10 -19 -3 -64 -7 -100 -10 -36 -3
-85 -8 -110 -10 -40 -3 -149 -11 -295 -20 -286 -19 -884 -24 -1215 -11 -187 7
-214 9 -375 20 -49 4 -119 9 -155 11 -36 2 -85 7 -110 9 -25 3 -76 8 -115 11
-38 3 -81 8 -95 10 -14 2 -52 7 -85 10 -60 6 -277 32 -325 40 -14 2 -61 9
-105 15 -44 7 -89 14 -100 16 -18 3 -53 9 -135 20 -19 3 -42 7 -50 9 -8 2 -31
7 -50 10 -19 3 -73 13 -120 21 -47 9 -96 18 -110 21 -14 2 -99 20 -190 40 -91
19 -178 37 -195 40 -16 3 -38 9 -47 14 -10 5 -18 8 -18 5 0 -2 -16 0 -36 6
-20 5 -44 11 -53 13 -9 2 -54 17 -100 34 -323 120 -736 331 -1016 518 -27 19
-57 38 -65 43 -8 5 -73 51 -145 101 -649 457 -1260 1063 -1843 1827 -70 93
-294 407 -368 517 -93 137 -244 377 -244 385 0 6 -4 10 -8 10 -4 0 -13 12 -20
28 -6 15 -32 59 -56 97 -25 39 -51 81 -59 95 -7 14 -41 72 -74 130 -408 707
-801 1586 -1065 2385 -65 197 -131 410 -143 460 -1 6 -5 17 -8 25 -3 8 -7 24
-10 35 -3 11 -22 81 -42 155 -20 74 -39 144 -41 155 -2 11 -13 58 -25 105 -11
47 -22 92 -24 100 -2 8 -11 47 -20 85 -14 64 -69 334 -80 395 -2 14 -11 66
-19 115 -9 50 -18 110 -21 135 -3 25 -7 56 -10 70 -2 14 -7 44 -10 68 -3 23
-7 61 -10 85 -12 92 -15 114 -20 177 -3 36 -8 79 -10 95 -25 212 -25 804 1
993 5 43 11 86 19 147 11 89 46 258 76 368 150 555 470 880 919 931 62 7 115
12 245 20 50 4 115 9 145 11 109 9 277 20 470 30 69 3 152 8 185 10 54 4 243
13 415 20 724 31 1559 19 2065 -30 134 -13 165 -16 275 -30 189 -24 194 -24
220 -29 14 -3 45 -8 70 -11 328 -43 904 -197 1155 -309 17 -8 73 -32 126 -55
116 -50 299 -151 429 -236 94 -61 271 -196 314 -238 12 -12 38 -36 57 -53 115
-103 279 -294 380 -444 329 -487 376 -830 157 -1154 -198 -292 -632 -564
-1242 -778 -216 -75 -513 -160 -648 -183 -17 -3 -34 -8 -38 -10 -3 -2 -60 -13
-126 -24 -65 -12 -130 -23 -144 -26 -13 -2 -42 -7 -65 -10 -38 -5 -56 -8 -115
-20 -14 -3 -41 -8 -60 -11 -19 -3 -46 -7 -60 -10 -14 -2 -92 -15 -175 -29 -82
-14 -163 -28 -180 -31 -134 -23 -266 -46 -295 -50 -19 -3 -69 -11 -110 -19
-71 -14 -97 -18 -180 -31 -62 -10 -92 -16 -88 -19 2 -2 109 -30 238 -64 129
-33 287 -73 350 -90 63 -16 205 -52 315 -81 603 -155 630 -162 795 -232 114
-48 311 -147 399 -200 34 -21 65 -38 67 -38 15 0 323 -218 434 -306 150 -120
456 -420 571 -559 41 -49 76 -92 79 -95 14 -14 164 -217 223 -301 173 -250
410 -690 522 -969 25 -63 50 -124 55 -135 71 -158 229 -697 275 -935 3 -14 7
-36 10 -50 3 -14 7 -36 10 -50 2 -14 9 -50 15 -80 6 -30 13 -71 16 -90 2 -19
7 -44 9 -56 4 -19 12 -73 29 -194 19 -135 31 -252 41 -395 4 -49 9 -108 12
-130 3 -22 6 -239 8 -482 3 -436 3 -443 25 -478 75 -121 249 -129 330 -15 35
49 36 61 57 490 15 326 8 1102 -12 1315 -3 28 -7 77 -10 110 -12 154 -46 407
-80 590 -2 11 -15 74 -30 140 -14 66 -28 128 -30 138 -12 54 -74 260 -115 382
-147 428 -348 842 -588 1210 -78 120 -198 293 -212 305 -3 3 -21 25 -40 50
-228 299 -573 639 -895 880 -119 89 -362 254 -388 263 -14 4 0 27 17 27 20 0
202 70 366 140 131 56 340 159 430 213 53 31 224 141 230 147 3 3 23 18 46 33
22 15 49 35 60 45 11 9 42 35 69 56 88 70 258 250 327 347 146 205 233 423
263 654 9 72 6 269 -5 345 -20 134 -74 324 -119 425 -239 530 -614 982 -1106
1333 -277 198 -689 401 -1055 522 -162 53 -449 132 -530 147 -14 2 -41 8 -60
13 -19 5 -48 12 -65 15 -47 9 -286 53 -325 59 -19 3 -46 8 -60 10 -14 3 -47 8
-74 11 -27 3 -59 7 -70 10 -12 2 -46 7 -77 10 -31 3 -66 7 -76 9 -11 3 -53 7
-94 11 -41 4 -87 8 -104 10 -58 6 -161 15 -240 20 -44 4 -102 8 -130 10 -276
21 -1387 28 -1775 12 -102 -4 -230 -9 -285 -12 -55 -2 -145 -6 -200 -10 -55
-3 -136 -8 -180 -10 -153 -8 -270 -16 -315 -20 -25 -3 -90 -7 -145 -10 -55 -4
-122 -8 -150 -10 -281 -20 -306 -22 -415 -41 -241 -40 -476 -141 -675 -290
-86 -64 -225 -200 -285 -280 -25 -32 -47 -61 -50 -64 -25 -24 -103 -155 -165
-275 -99 -192 -225 -579 -249 -765 -2 -19 -9 -62 -15 -95 -15 -87 -19 -113
-26 -185 -4 -36 -8 -78 -10 -94 -25 -204 -25 -776 -1 -1041 2 -16 7 -64 11
-105 4 -41 9 -86 10 -100 4 -47 17 -155 20 -180 3 -14 7 -43 10 -65 2 -22 7
-58 10 -80 6 -43 61 -373 70 -415 2 -14 9 -48 15 -76 6 -28 13 -61 15 -75 3
-13 16 -76 31 -139 14 -63 28 -124 30 -135 2 -11 6 -29 8 -40 4 -19 65 -256
101 -390 73 -272 230 -755 346 -1067 81 -217 257 -651 319 -784 10 -23 39 -86
64 -140 24 -55 51 -112 58 -128 99 -216 416 -832 449 -875 11 -13 19 -28 19
-34 0 -5 15 -35 33 -66 227 -382 302 -507 307 -511 3 -3 17 -23 30 -45 132
-223 524 -774 754 -1060 73 -91 283 -343 296 -355 3 -3 23 -25 44 -50 141
-162 470 -501 627 -645 36 -33 87 -80 115 -105 70 -66 299 -260 364 -309 288
-222 439 -329 624 -445 115 -72 241 -147 266 -159 8 -4 31 -17 50 -29 60 -36
400 -204 495 -244 104 -43 116 -51 109 -68 -5 -13 13 -24 51 -32 11 -2 86 -20
165 -40 80 -20 156 -38 170 -40 13 -3 63 -14 110 -25 47 -11 94 -22 105 -25
11 -2 94 -19 185 -38 91 -19 183 -38 205 -42 22 -4 42 -8 45 -9 3 0 26 -4 51
-8 75 -12 101 -17 154 -27 28 -5 66 -12 85 -14 110 -17 391 -57 425 -62 22 -3
51 -7 65 -9 14 -2 54 -7 90 -10 36 -4 72 -8 80 -10 8 -2 51 -6 95 -10 44 -4
94 -9 110 -10 17 -2 67 -6 112 -10 44 -3 89 -7 100 -9 10 -2 74 -7 143 -11 69
-4 141 -8 160 -10 230 -22 1289 -22 1505 0 22 2 83 7 135 10 52 3 115 8 140
10 25 2 81 6 125 10 120 10 233 21 350 35 44 5 103 12 130 15 28 3 61 8 75 10
14 2 48 7 75 10 28 4 61 8 75 10 14 3 70 11 125 19 233 36 550 106 611 136
107 52 190 143 240 260 17 40 19 79 24 340 l5 295 50 25 c28 14 53 29 56 33 3
5 9 8 13 8 14 -2 86 32 86 41 0 5 4 7 9 3 5 -3 17 2 25 11 9 8 16 13 16 10 0
-6 99 43 110 54 3 3 12 6 20 8 8 2 17 8 18 13 2 5 8 7 13 3 5 -3 9 0 9 6 0 6
4 9 10 5 5 -3 18 3 30 15 11 11 20 18 20 15 0 -6 86 40 106 56 6 5 14 6 17 2
4 -3 7 -1 7 5 0 7 5 12 11 12 7 0 18 8 26 18 8 9 11 10 7 2 -5 -8 4 -5 20 8
16 12 33 22 39 22 6 0 24 10 41 23 17 13 38 26 46 30 8 4 33 18 55 32 22 13
50 29 62 34 11 5 24 14 27 20 4 6 29 22 56 37 28 15 50 31 50 36 0 4 7 8 15 8
8 0 15 5 15 11 0 5 5 7 10 4 6 -3 10 -1 10 4 0 6 4 11 10 11 15 0 140 91 140
102 0 6 3 8 6 5 4 -4 30 10 58 30 66 48 160 117 166 123 3 3 23 18 45 35 59
44 65 48 91 72 13 12 24 20 24 18 0 -3 8 3 18 13 10 9 38 33 61 52 24 19 52
43 62 53 11 9 21 17 24 17 9 0 43 38 39 44 -2 3 -1 4 2 1 9 -6 80 57 76 68 -1
5 2 6 7 3 5 -3 25 12 45 34 20 22 36 38 36 35 0 -2 13 8 28 23 16 15 61 57
100 95 40 37 70 67 67 67 -2 0 17 19 43 43 26 23 50 47 54 53 4 6 35 40 70 75
35 35 64 67 66 72 1 4 4 6 7 5 7 -4 40 46 37 55 -1 5 2 6 8 2 5 -3 13 1 16 9
3 9 26 36 51 61 24 25 42 45 39 45 -3 0 5 11 17 23 12 13 38 43 57 67 19 24
41 49 48 56 6 7 12 15 12 18 0 2 14 20 30 38 17 18 30 39 30 47 0 8 3 11 7 8
3 -4 18 10 32 31 13 20 31 43 38 50 7 8 18 23 24 35 12 22 24 37 52 68 9 10
14 19 10 19 -5 0 -3 4 3 8 17 11 186 262 177 262 -4 0 -3 4 3 8 14 9 77 102
69 102 -3 0 5 12 19 27 14 15 23 30 20 35 -3 4 -1 8 5 8 5 0 13 10 17 22 3 12
11 26 16 32 17 20 106 176 101 176 -4 0 2 9 12 20 10 11 14 20 9 20 -5 0 -4 4
2 8 12 7 65 107 63 118 0 4 3 10 9 13 10 7 104 191 97 191 -2 0 7 16 20 36 14
20 22 40 19 45 -3 5 -2 9 3 9 11 0 34 51 27 61 -3 5 -1 9 4 9 10 0 45 79 42
94 -1 5 3 12 8 15 5 3 37 71 70 151 55 132 76 187 148 379 13 35 21 68 18 72
-3 5 -1 9 4 9 9 0 49 119 44 133 -1 4 3 7 8 7 6 0 10 6 10 14 0 8 16 64 36
125 19 62 37 120 39 130 2 10 13 49 25 87 22 69 31 106 34 134 1 9 5 20 8 26
4 6 9 21 12 35 3 13 10 42 16 64 6 22 13 50 15 61 3 12 19 81 35 154 16 73 32
142 34 154 2 11 11 55 20 96 8 41 18 91 21 110 3 19 8 43 11 53 3 10 7 36 9
57 2 21 5 43 8 47 3 5 8 35 11 67 3 31 8 60 10 64 2 4 7 27 10 52 3 25 8 54
10 65 4 21 18 126 21 160 2 11 5 38 8 60 9 60 17 134 22 190 2 28 6 66 9 85 7
43 20 196 31 365 19 269 27 558 25 885 -2 371 -3 427 -11 435 -4 3 -20 -11
-35 -32 -16 -21 -31 -40 -35 -43 -3 -3 -30 -35 -61 -72 -31 -36 -69 -81 -85
-98 -15 -18 -27 -38 -25 -44 2 -6 1 -8 -3 -4 -8 7 -26 -11 -90 -88 -22 -26
-50 -57 -62 -68 -12 -10 -20 -23 -17 -28 3 -5 2 -7 -3 -6 -4 2 -33 -24 -63
-57 -30 -32 -74 -79 -97 -103 -24 -25 -43 -49 -43 -54 0 -5 -4 -7 -9 -4 -5 4
-11 2 -13 -4 -3 -9 -297 -310 -303 -310 -2 0 -30 -26 -63 -57 -105 -102 -194
-183 -198 -183 -2 0 -12 -8 -22 -17 -26 -24 -110 -96 -151 -130 -34 -28 -56
-49 -76 -75 -26 -32 -81 -108 -95 -128 -8 -13 -24 -31 -34 -41 -11 -11 -16
-19 -12 -19 4 0 1 -6 -6 -13 -7 -8 -22 -26 -33 -42 -11 -15 -31 -40 -43 -56
-13 -16 -20 -29 -16 -29 4 0 -1 -7 -12 -15 -10 -8 -15 -15 -11 -15 4 0 -4 -12
-18 -27 -14 -15 -25 -33 -25 -40 0 -6 -4 -13 -9 -15 -8 -3 -81 -113 -81 -123
0 -2 -12 -17 -25 -31 -14 -15 -23 -29 -21 -32 3 -2 -3 -13 -13 -23 -10 -11
-24 -32 -32 -47 -8 -15 -20 -33 -27 -40 -7 -8 -9 -18 -6 -24 4 -7 2 -8 -4 -4
-11 6 -16 -6 -13 -26 0 -5 -4 -8 -10 -8 -5 0 -7 -4 -4 -10 3 -5 2 -10 -4 -10
-8 0 -92 -137 -124 -200 -4 -8 -23 -42 -42 -75 -19 -33 -47 -85 -62 -115 -16
-30 -32 -58 -36 -61 -5 -3 -9 -13 -11 -21 -1 -8 -9 -27 -19 -41 -9 -14 -18
-32 -19 -39 -2 -7 -6 -15 -10 -18 -3 -3 -8 -12 -10 -20 -2 -8 -9 -21 -16 -28
-7 -8 -10 -18 -7 -23 4 -5 3 -9 -2 -9 -8 0 -33 -47 -33 -63 0 -5 -9 -22 -21
-38 -11 -16 -21 -38 -22 -49 -1 -11 -4 -20 -7 -20 -7 0 -32 -66 -30 -76 1 -4
-2 -10 -7 -13 -8 -5 -72 -151 -78 -176 -1 -5 -12 -32 -23 -58 -12 -27 -22 -54
-22 -61 0 -7 -3 -16 -7 -20 -5 -4 -8 -11 -9 -14 0 -4 -4 -15 -8 -24 -4 -9 -8
-22 -10 -30 -1 -7 -5 -18 -9 -25 -12 -19 -51 -147 -48 -160 1 -7 -2 -13 -7
-13 -9 0 -24 -47 -26 -80 0 -8 -3 -17 -6 -20 -7 -6 -42 -133 -46 -165 -1 -11
-3 -21 -4 -22 -2 -2 -4 -7 -5 -13 -1 -5 -4 -11 -5 -12 -1 -2 -4 -12 -6 -23 -1
-11 -12 -60 -23 -110 -10 -49 -17 -93 -15 -97 2 -4 0 -9 -4 -12 -5 -3 -9 -18
-10 -33 -3 -67 -32 -196 -49 -215 -45 -50 -129 -59 -172 -18 -36 35 -42 75
-27 200 3 25 8 74 11 110 8 88 13 135 21 200 4 30 8 73 10 95 2 22 6 60 9 85
3 25 8 63 10 85 2 22 7 56 10 75 3 19 7 58 10 86 3 28 8 61 10 74 3 14 7 42
10 65 3 22 10 65 15 95 5 30 12 73 15 95 3 22 10 65 15 95 6 30 12 67 15 83
11 58 14 73 24 117 5 25 12 56 15 70 2 14 14 68 26 120 12 52 23 102 25 110 1
8 6 23 10 32 4 10 8 29 9 43 0 14 4 25 7 25 4 0 10 16 13 35 7 34 49 175 62
205 8 17 11 27 17 50 2 8 8 24 12 35 5 11 21 52 37 90 16 39 30 75 31 80 2 6
12 29 24 52 12 22 19 44 16 47 -4 3 -2 6 4 6 10 0 19 19 21 44 0 5 4 12 9 15
4 3 21 32 38 63 l30 57 -22 20 c-13 13 -30 18 -45 15 -83 -17 -465 -24 -573
-11 -83 10 -118 15 -155 22 -57 9 -232 56 -252 66 -10 6 -22 7 -27 4 -5 -3
-11 -1 -13 5 -2 6 -14 12 -27 15 -12 2 -29 9 -37 15 -7 7 -18 9 -24 5 -5 -3
-10 -2 -10 2 0 8 -58 38 -85 45 -5 1 -19 10 -29 20 -11 10 -24 18 -29 18 -4 0
-23 11 -41 25 -18 14 -35 25 -39 25 -19 0 -245 227 -246 248 -1 4 -8 15 -16
25 -8 9 -15 21 -15 25 0 4 -9 14 -20 22 -11 8 -20 22 -20 31 0 10 -3 19 -7 21
-10 4 -42 57 -50 80 -3 10 -10 18 -15 18 -5 0 -7 4 -3 9 3 5 -1 15 -8 23 -7 7
-13 15 -13 18 0 3 -8 25 -19 50 -10 25 -19 51 -21 59 -1 8 -9 18 -16 22 -7 5
-9 9 -4 9 5 0 3 6 -3 13 -6 8 -9 16 -6 19 3 3 -1 18 -9 33 -8 16 -13 32 -10
37 3 4 0 8 -7 8 -7 0 -10 3 -7 6 4 3 2 20 -4 37 -5 18 -11 41 -13 52 -2 11 -4
22 -6 25 -1 3 -3 10 -4 15 -2 6 -4 12 -5 15 -3 8 -16 89 -25 155 -20 150 -24
305 -11 455 10 117 11 124 31 255 2 11 4 20 5 20 1 0 3 7 5 15 5 27 16 84 20
105 2 11 4 20 5 20 1 0 3 8 6 18 2 9 6 25 8 35 3 9 5 19 7 22 1 3 3 10 4 15 1
6 4 17 7 25 3 8 14 42 24 75 10 33 22 66 28 73 5 7 6 15 3 19 -4 3 -3 11 2 17
5 6 14 29 20 51 7 22 16 49 21 60 4 11 27 74 50 140 23 66 48 133 55 150 8 16
11 33 9 37 -3 4 -1 8 4 8 6 0 13 12 18 28 4 15 8 29 9 32 7 20 19 50 32 80 8
19 17 44 19 54 2 11 8 23 14 26 6 4 10 11 9 16 -3 9 19 60 47 115 7 14 11 29
7 33 -3 3 -1 6 5 6 7 0 12 7 12 15 0 9 7 27 16 40 9 14 13 25 10 25 -4 0 0 10
8 23 8 12 15 24 14 27 0 3 16 37 35 77 19 39 32 74 29 77 -3 3 0 6 6 6 6 0 16
17 23 38 6 20 15 39 18 42 14 12 31 52 26 60 -4 6 -2 10 4 10 9 0 21 26 20 44
0 5 4 12 9 15 15 9 91 159 84 165 -3 3 -1 6 5 6 6 0 16 12 22 27 6 16 15 35
21 43 15 23 110 191 110 195 0 2 14 25 31 50 17 25 32 52 33 59 1 7 9 20 18
29 9 9 22 30 30 47 7 16 16 30 19 30 4 0 12 14 19 30 7 17 16 30 21 30 5 0 9
6 9 13 0 7 9 23 20 35 12 12 17 22 13 22 -4 0 -3 4 2 8 9 6 89 119 120 169 6
9 18 27 29 39 10 12 17 25 16 29 -1 4 8 15 19 24 12 10 21 23 21 29 0 5 7 13
16 16 9 4 14 9 11 12 -3 3 2 14 11 23 29 31 52 61 46 61 -3 0 7 11 22 25 15
14 25 25 22 25 -3 0 12 19 33 42 22 24 39 46 39 50 0 4 12 19 27 33 15 14 25
25 21 25 -3 0 8 15 25 33 81 86 152 172 149 182 -2 5 0 7 4 3 4 -4 23 11 43
34 20 23 55 60 78 82 23 22 39 45 36 51 -4 5 -3 7 1 3 10 -9 82 63 78 77 -2 5
-1 7 3 3 4 -4 37 21 74 56 116 111 224 206 233 206 5 0 6 5 3 10 -3 6 1 10 9
10 9 0 21 9 28 20 7 11 16 20 21 20 4 0 20 13 35 28 15 15 32 30 37 32 6 3 9
8 7 13 -1 4 1 6 5 5 8 -3 69 41 104 75 11 9 24 17 29 17 6 0 10 3 10 8 0 4 18
18 39 32 22 13 37 28 35 32 -3 5 -2 7 3 6 11 -4 83 44 83 55 0 4 5 7 10 7 8 0
229 139 265 167 6 4 40 24 77 43 36 19 64 38 61 43 -2 4 -1 6 4 5 4 -2 87 36
183 84 96 48 187 90 203 93 15 4 27 11 27 16 0 5 3 8 8 7 12 -3 57 14 63 25 4
5 3 24 -2 41 -8 28 -20 89 -35 181 -3 17 -12 64 -21 105 -9 41 -16 81 -16 88
0 6 -3 12 -7 12 -3 0 -6 8 -6 18 -1 21 -5 39 -40 172 -14 58 -27 111 -27 118
0 6 -3 12 -7 12 -3 0 -6 8 -6 18 -1 22 -7 48 -34 152 -12 47 -23 92 -25 100
-2 8 -8 35 -15 60 -7 25 -14 56 -16 70 -3 14 -9 39 -15 56 -5 17 -11 40 -13
50 -2 10 -23 96 -46 189 -24 94 -43 176 -43 183 0 6 -4 12 -8 12 -4 0 -6 6 -6
13 1 17 -13 87 -23 117 -5 14 -12 37 -15 53 -11 59 -16 81 -20 87 -2 4 -7 22
-10 41 -3 19 -10 49 -15 67 -24 80 -29 99 -34 132 -3 19 -10 51 -17 70 -6 19
-17 62 -25 95 -8 33 -16 69 -19 80 -3 11 -7 29 -9 40 -2 11 -14 58 -26 105
-12 47 -24 92 -25 100 -2 8 -4 15 -5 15 -1 0 -3 11 -6 25 -2 14 -7 32 -10 40
-4 8 -8 29 -10 45 -2 17 -7 37 -11 45 -3 8 -8 29 -10 45 -3 17 -9 32 -14 33
-5 2 -7 7 -5 11 3 4 0 25 -5 47 -5 21 -12 50 -15 64 -3 14 -14 59 -26 100 -24
90 -25 94 -44 185 -3 17 -9 35 -13 40 -4 6 -7 17 -6 25 1 8 -2 22 -6 31 -5 9
-11 29 -14 45 -3 16 -8 40 -11 54 -3 14 -12 52 -21 85 -21 84 -24 98 -25 113
-1 6 -5 12 -10 12 -5 0 -7 4 -4 8 5 8 -27 148 -41 182 -3 8 -5 19 -4 23 1 4
-6 34 -16 65 -9 31 -16 61 -15 66 2 4 -2 14 -8 20 -5 7 -7 16 -4 19 3 3 2 12
-2 19 -4 7 -9 19 -10 28 -1 8 -25 107 -53 220 -28 113 -54 216 -57 229 -3 14
-7 28 -9 31 -2 4 -7 22 -10 41 -3 19 -11 52 -17 74 -5 22 -12 47 -13 55 -2 8
-4 15 -6 15 -1 0 -3 9 -4 20 -1 11 -8 40 -15 65 -7 25 -13 52 -15 60 -2 8 -22
88 -44 177 -23 89 -43 172 -45 185 -3 13 -5 23 -6 23 -1 0 -3 7 -5 15 -2 8
-13 55 -25 104 -12 49 -24 96 -25 105 -2 9 -4 16 -5 16 -2 0 -5 16 -13 57 -3
15 -9 33 -12 39 -4 6 -8 23 -10 37 -2 15 -11 56 -20 92 -9 36 -18 72 -20 80
-2 8 -4 16 -5 18 -2 1 -4 7 -5 12 -1 6 -4 13 -5 18 -1 4 -2 11 -1 16 1 4 -3
23 -9 41 -6 18 -13 43 -16 56 -3 13 -6 29 -8 34 -1 6 -8 37 -15 70 -7 33 -17
65 -21 70 -5 6 -9 15 -9 20 -2 40 -15 96 -22 101 -5 3 -7 9 -4 14 3 5 1 19 -4
32 -5 14 -12 42 -15 62 -3 21 -10 45 -15 54 -5 9 -9 19 -9 22 0 15 -15 86 -20
95 -3 5 -7 18 -8 30 -2 11 -12 56 -24 100 -12 44 -23 89 -25 100 -6 28 -13 59
-15 65 -1 3 -3 10 -5 15 -1 6 -3 12 -4 15 -2 3 -4 12 -6 20 -2 8 -6 29 -10 45
-3 17 -8 39 -10 50 -6 31 -26 108 -32 125 -3 8 -7 22 -9 30 -2 9 -10 45 -19
80 -9 36 -18 74 -20 85 -6 26 -34 134 -40 158 -7 24 -14 57 -21 91 -2 16 -7
33 -10 38 -5 7 -7 16 -19 71 -2 12 -8 36 -12 52 -4 17 -6 33 -5 38 1 4 -2 7
-6 7 -4 0 -8 8 -9 18 -1 9 -3 24 -6 32 -2 8 -7 36 -12 63 -4 26 -11 47 -15 47
-4 0 -7 6 -7 13 2 14 -21 125 -30 147 -3 8 -8 28 -10 45 -3 16 -8 34 -13 40
-4 5 -6 18 -5 28 2 9 0 17 -5 17 -4 0 -7 6 -6 13 1 12 -21 111 -31 137 -4 8
-5 19 -4 24 1 4 -3 14 -9 20 -5 7 -8 15 -5 18 3 2 -2 27 -10 54 -7 27 -16 60
-19 74 -3 14 -10 43 -16 65 -6 22 -13 56 -17 75 -3 19 -9 43 -14 52 -5 9 -12
34 -15 55 -3 21 -9 42 -12 47 -3 6 -7 19 -8 30 -1 12 -12 59 -24 106 -12 47
-23 92 -25 100 -2 8 -31 125 -65 260 -34 135 -64 258 -67 273 -2 16 -11 46
-18 67 -7 21 -11 41 -8 44 3 3 1 12 -5 19 -7 8 -9 17 -6 20 3 3 2 12 -2 19 -5
7 -10 21 -11 30 -16 101 -85 298 -105 298 -5 0 -7 4 -3 9 3 5 -5 17 -17 25
-12 9 -18 16 -13 16 26 0 -131 134 -166 142 -7 2 -20 9 -27 16 -8 7 -17 10
-22 7 -5 -3 -10 -2 -12 2 -1 5 -18 16 -36 25 -20 11 -30 13 -26 5 4 -6 -1 -5
-12 4 -10 9 -35 21 -54 28 -19 7 -44 17 -55 22 -11 5 -27 10 -35 11 -8 2 -17
5 -20 9 -7 7 -151 51 -172 52 -10 1 -18 4 -18 7 0 4 -30 13 -67 20 -38 8 -70
15 -73 15 -3 1 -25 5 -50 9 -25 4 -58 10 -75 14 -43 8 -332 8 -386 0 -25 -4
-59 -12 -75 -18 -16 -6 -31 -12 -34 -12 -7 -1 -27 -7 -47 -15 -10 -3 -24 -7
-32 -9 -8 -1 -17 -8 -21 -14 -4 -7 -11 -11 -16 -11 -18 1 -44 -11 -44 -20 0
-6 -4 -8 -9 -4 -6 3 -20 -5 -32 -17 -12 -13 -19 -16 -15 -8 7 13 6 13 -6 0 -7
-8 -20 -16 -28 -18 -8 -2 -20 -10 -26 -18 -6 -7 -15 -14 -19 -14 -8 0 -60 -41
-125 -99 -19 -17 -38 -31 -42 -31 -5 0 -8 -7 -8 -15 0 -8 -7 -15 -16 -15 -8 0
-12 -4 -9 -10 3 -5 0 -10 -8 -10 -7 0 -29 -19 -48 -41 -19 -23 -49 -57 -68
-75 -19 -19 -31 -34 -26 -34 4 0 -4 -9 -19 -21 -14 -11 -24 -25 -21 -30 4 -5
2 -9 -4 -9 -9 0 -146 -179 -145 -190 0 -3 -4 -10 -10 -17 -30 -34 -36 -43 -29
-43 4 0 3 -4 -3 -8 -18 -12 -98 -142 -88 -142 3 0 -4 -10 -15 -22 -11 -11 -18
-25 -15 -30 3 -4 1 -8 -4 -8 -5 0 -16 -17 -26 -37 -38 -86 -47 -205 -32 -423
4 -52 9 -124 11 -160 2 -36 6 -103 10 -150 3 -47 8 -121 11 -165 3 -44 7 -111
10 -150 2 -38 6 -104 9 -145 5 -85 11 -187 20 -305 3 -44 8 -116 10 -160 3
-44 8 -111 10 -150 3 -38 7 -104 10 -145 3 -41 8 -113 11 -160 2 -47 6 -112 8
-145 5 -67 15 -217 21 -315 9 -137 15 -238 20 -305 3 -38 8 -106 10 -150 4
-75 7 -119 21 -320 3 -44 7 -109 9 -145 2 -36 6 -101 9 -145 3 -44 8 -116 11
-160 3 -44 8 -118 11 -165 3 -47 7 -110 9 -140 2 -30 7 -98 10 -150 3 -52 7
-126 10 -165 6 -88 16 -225 20 -290 7 -125 16 -255 20 -310 3 -33 7 -105 11
-160 3 -55 7 -125 9 -155 2 -30 7 -95 10 -145 12 -173 14 -201 19 -300 4 -55
8 -125 11 -155 2 -30 6 -98 9 -150 8 -123 15 -236 21 -330 12 -165 15 -218 19
-285 3 -38 8 -113 11 -165 4 -52 8 -120 10 -150 2 -30 6 -95 10 -145 3 -49 8
-121 10 -160 6 -101 15 -231 20 -300 15 -186 14 -297 -1 -327 -14 -27 -74 -94
-74 -83 0 3 -12 0 -27 -6 -41 -16 -101 -13 -130 6 -18 12 -23 13 -18 4 3 -8
-1 -5 -10 6 -9 11 -21 19 -26 17 -6 -1 -8 2 -5 7 4 5 -2 14 -11 20 -10 6 -14
11 -9 11 5 0 4 6 -2 13 -16 19 -28 86 -37 212 -2 28 -4 50 -5 50 -1 0 -4 18
-5 40 -2 22 -6 58 -9 80 -8 57 -17 144 -20 190 -2 22 -6 59 -10 81 -4 23 -9
66 -11 95 -7 71 -13 132 -20 199 -3 30 -8 73 -10 95 -3 22 -7 60 -10 85 -6 52
-14 116 -20 180 -3 25 -7 63 -10 85 -3 22 -7 63 -10 90 -2 28 -7 75 -10 105
-3 30 -8 71 -10 90 -2 19 -6 55 -9 80 -17 147 -24 206 -31 290 -2 25 -6 59 -9
75 -3 17 -8 59 -11 95 -4 36 -8 79 -10 95 -12 104 -17 154 -20 185 -2 19 -6
55 -9 80 -5 42 -7 67 -21 200 -8 80 -15 140 -22 185 -3 22 -7 63 -9 90 -3 28
-7 66 -9 85 -2 19 -7 60 -10 90 -3 30 -7 75 -10 100 -3 25 -7 68 -10 95 -3 28
-8 68 -11 90 -3 22 -8 58 -10 80 -5 62 -12 126 -18 175 -3 25 -8 72 -12 105
-3 33 -7 71 -8 85 -2 14 -6 55 -10 91 -4 36 -9 76 -11 90 -3 13 -7 51 -10 84
-6 76 -13 137 -20 200 -3 28 -8 68 -10 90 -2 22 -7 61 -10 88 -9 83 -15 136
-19 180 -3 23 -8 67 -11 97 -4 30 -8 73 -10 94 -2 22 -6 60 -10 85 -3 25 -7
66 -10 91 -2 25 -7 65 -10 90 -3 25 -8 72 -11 105 -3 33 -7 74 -9 90 -2 17 -6
55 -9 85 -3 30 -8 71 -11 90 -3 19 -8 62 -11 95 -3 33 -7 71 -9 85 -4 32 -16
154 -20 200 -2 19 -4 35 -5 35 -1 0 -3 18 -5 40 -2 22 -6 63 -9 90 -3 28 -8
75 -11 105 -4 30 -8 69 -10 85 -3 17 -7 57 -10 90 -4 33 -9 80 -11 105 -3 25
-6 51 -6 58 -1 13 -13 6 -13 -9 0 -5 -4 -10 -10 -11 -9 -3 -16 30 -30 137 -3
22 -8 54 -12 70 -3 17 -7 41 -9 55 -1 14 -3 25 -4 25 -1 0 -3 16 -5 35 -2 19
-6 46 -9 60 -3 14 -8 41 -10 60 -3 19 -8 46 -10 59 -3 13 -8 49 -12 80 -3 31
-10 66 -15 77 -4 12 -6 24 -3 27 3 2 0 25 -6 51 -5 25 -12 65 -15 88 -9 69
-13 93 -15 93 -1 0 -3 14 -5 30 -6 53 -15 109 -21 135 -3 14 -7 43 -9 65 -2
23 -7 54 -10 70 -4 17 -8 44 -11 62 -4 27 -13 75 -29 151 -3 12 -7 33 -9 46
-2 13 -9 32 -15 43 -5 11 -7 23 -4 27 3 3 0 6 -7 6 -7 0 -11 3 -7 6 3 3 -1 25
-10 47 -8 23 -16 47 -17 52 -2 6 -8 23 -14 38 -7 16 -12 33 -12 38 0 6 -7 17
-15 25 -8 9 -15 24 -15 35 0 10 -5 19 -12 19 -6 0 -9 3 -5 6 7 7 -62 147 -75
152 -4 2 -6 8 -2 13 3 5 0 9 -6 9 -6 0 -8 5 -5 10 3 6 1 10 -4 10 -6 0 -11 6
-11 13 0 7 -9 23 -20 35 -11 12 -20 24 -20 27 1 12 -45 76 -80 113 -14 14 -18
22 -10 18 9 -5 8 -2 -2 7 -10 8 -18 18 -18 23 0 5 -22 31 -50 57 -27 26 -47
47 -44 47 2 0 -15 20 -38 45 -23 25 -48 45 -55 45 -7 0 -12 3 -10 8 1 4 -1 7
-5 7 -3 0 -20 16 -38 35 -18 19 -29 28 -25 20 4 -8 -7 1 -24 20 -18 19 -29 28
-26 20 4 -8 -7 0 -24 18 -18 18 -37 30 -42 27 -5 -4 -9 -2 -9 4 0 6 -11 13
-25 17 -14 3 -22 10 -19 15 3 5 0 9 -7 9 -7 0 -21 8 -32 18 -15 12 -19 13 -13
2 5 -9 2 -8 -7 2 -8 10 -17 15 -20 11 -4 -3 -7 -1 -7 6 0 7 -4 9 -10 6 -5 -3
-10 -1 -10 5 0 6 -4 8 -10 5 -5 -3 -10 -1 -10 4 0 6 -4 11 -10 11 -5 0 -33 11
-62 24 -29 14 -66 28 -81 31 -15 4 -30 11 -32 16 -3 4 -12 6 -20 2 -8 -3 -15
0 -15 7 0 7 -7 10 -15 7 -8 -4 -17 -2 -19 2 -5 7 -53 22 -81 25 -5 1 -16 5
-22 9 -7 5 -17 6 -22 2 -5 -3 -12 -1 -16 5 -3 5 -16 9 -28 9 -12 -1 -33 2 -47
6 -14 4 -38 8 -55 10 -16 3 -43 6 -60 9 -100 15 -308 24 -396 16z"/>
<path d="M14139 29965 c-4 -3 -16 -8 -28 -10 -11 -3 -30 -7 -41 -10 -46 -12
-66 -16 -75 -18 -5 -2 -16 -6 -22 -10 -7 -5 -17 -6 -22 -2 -5 3 -13 0 -16 -6
-4 -5 -13 -8 -21 -5 -8 3 -14 1 -14 -5 0 -6 -7 -9 -15 -6 -8 4 -17 2 -20 -4
-4 -5 -10 -7 -15 -4 -5 3 -12 0 -15 -6 -4 -5 -13 -8 -21 -5 -7 3 -16 1 -19 -3
-4 -7 -54 -21 -87 -25 -3 -1 -10 -4 -14 -8 -4 -5 -16 -8 -26 -8 -27 0 -22 -12
17 -38 19 -12 35 -27 35 -32 0 -6 5 -10 10 -10 16 0 60 -47 52 -56 -4 -4 -2
-4 4 -1 12 7 46 -28 36 -38 -4 -4 -2 -5 3 -3 13 4 115 -96 115 -114 0 -7 6 -5
13 7 12 21 14 26 16 49 0 8 8 22 17 30 8 9 12 16 8 16 -3 0 0 7 7 17 8 9 12
17 10 17 -8 2 11 46 20 46 6 0 8 4 4 9 -3 5 0 15 7 23 7 7 14 20 16 28 2 8 8
18 14 21 5 3 9 8 7 10 -5 9 13 49 22 49 6 0 8 4 4 9 -3 5 2 17 11 25 8 9 12
16 8 16 -4 0 1 9 10 19 16 18 20 52 5 36z"/>
<path d="M22176 29327 c4 -18 8 -42 8 -54 0 -13 3 -23 6 -23 4 0 7 -6 8 -12 0
-7 3 -24 7 -38 3 -14 7 -29 9 -35 1 -5 5 -19 9 -30 10 -30 19 -77 21 -102 0
-13 4 -23 7 -23 3 0 6 -6 7 -12 1 -19 12 -70 19 -93 12 -36 15 -50 17 -72 0
-13 5 -23 10 -23 4 0 6 -9 3 -20 -3 -11 -1 -20 5 -20 6 0 8 -6 5 -14 -3 -8 -3
-17 1 -20 6 -6 9 -17 16 -61 2 -11 9 -40 16 -65 6 -25 13 -52 15 -61 2 -8 10
-39 19 -67 8 -29 13 -52 11 -52 -2 0 2 -18 10 -40 8 -22 12 -40 10 -40 -3 0 0
-11 5 -25 10 -25 20 -65 24 -95 1 -9 6 -21 10 -28 4 -7 5 -16 2 -19 -3 -3 -1
-13 4 -23 5 -9 12 -30 14 -46 3 -16 10 -44 15 -62 5 -18 10 -35 10 -37 1 -3 1
-6 2 -7 1 -5 8 -33 13 -54 2 -12 9 -38 14 -58 6 -20 8 -36 5 -36 -3 0 0 -6 6
-14 6 -8 11 -18 10 -22 -1 -5 0 -11 1 -14 1 -3 3 -12 5 -20 2 -8 7 -26 10 -40
7 -30 13 -57 20 -89 2 -13 9 -38 14 -55 6 -17 13 -42 15 -56 3 -14 10 -45 17
-70 6 -25 13 -53 15 -62 2 -10 7 -28 10 -40 3 -13 7 -30 8 -38 2 -8 10 -39 19
-68 9 -30 16 -57 16 -60 -1 -4 0 -9 1 -12 1 -3 3 -12 5 -20 4 -16 12 -48 20
-80 11 -45 16 -66 21 -87 2 -12 9 -34 14 -48 5 -14 7 -25 5 -25 -2 0 0 -11 5
-25 5 -14 12 -36 14 -48 5 -21 10 -42 21 -87 3 -11 7 -29 10 -40 3 -11 7 -30
10 -42 3 -13 14 -61 26 -108 11 -47 22 -92 24 -100 2 -8 14 -53 25 -100 12
-47 24 -94 26 -105 3 -11 7 -29 8 -40 2 -11 4 -20 5 -20 2 0 4 -7 6 -15 25
-100 32 -130 27 -130 -2 0 1 -6 7 -14 6 -7 12 -26 13 -42 1 -16 6 -34 11 -41
5 -7 6 -17 3 -22 -4 -5 -1 -13 5 -16 5 -4 8 -13 5 -20 -2 -7 -2 -16 2 -19 6
-6 11 -24 16 -56 1 -9 6 -21 10 -28 4 -7 5 -16 2 -19 -3 -3 -1 -12 4 -19 6 -6
10 -16 9 -20 -1 -5 1 -21 5 -35 4 -14 9 -34 11 -45 2 -10 4 -19 6 -19 1 0 3
-9 5 -20 1 -11 6 -31 9 -45 4 -14 10 -41 15 -60 5 -19 11 -45 14 -57 3 -13 8
-32 11 -43 3 -11 7 -29 10 -40 3 -11 8 -30 11 -42 3 -13 7 -32 9 -43 2 -11 4
-21 5 -22 2 -2 4 -7 5 -13 1 -5 4 -13 5 -17 1 -5 1 -12 0 -18 -1 -5 1 -7 5 -3
6 6 28 -8 67 -44 10 -10 18 -16 18 -13 0 6 38 -24 58 -47 9 -9 19 -15 24 -12
4 3 11 -2 14 -10 3 -9 12 -16 19 -16 8 0 22 -11 33 -25 11 -13 22 -21 26 -18
3 3 6 -1 6 -11 0 -9 4 -15 8 -12 9 6 49 -22 94 -66 15 -14 28 -24 28 -22 0 3
11 -5 25 -18 14 -13 39 -34 56 -48 18 -14 42 -35 56 -47 13 -13 28 -23 32 -23
5 0 15 -8 22 -17 12 -14 12 -16 0 -8 -10 5 -12 4 -7 -4 4 -6 11 -9 15 -7 4 3
23 -9 42 -27 19 -18 46 -40 62 -50 15 -9 26 -23 24 -30 -1 -6 3 -11 9 -10 6 1
26 -12 45 -28 19 -17 27 -27 19 -23 -9 4 -12 3 -7 -2 5 -5 12 -9 17 -9 5 0 17
-9 27 -21 10 -11 26 -23 36 -27 11 -4 15 -12 11 -19 -4 -7 -4 -10 1 -6 11 11
36 -12 28 -25 -3 -5 -1 -7 5 -3 6 3 19 -5 30 -19 11 -14 24 -25 28 -25 13 0
70 -62 67 -72 -2 -4 1 -7 6 -5 5 1 22 -12 38 -29 17 -17 38 -34 47 -37 10 -4
14 -12 11 -17 -4 -6 -1 -9 7 -8 7 2 12 -4 10 -12 -2 -8 -1 -12 3 -8 8 8 80
-61 80 -77 0 -5 5 -10 12 -10 15 0 28 -13 28 -28 0 -7 5 -12 12 -12 7 0 18 -6
25 -14 11 -12 10 -13 -2 -6 -9 5 -12 4 -7 -1 5 -5 12 -9 16 -9 14 0 40 -33 33
-40 -4 -5 -2 -5 4 -2 14 8 37 -17 26 -27 -4 -4 0 -6 8 -4 8 2 14 -3 13 -9 -2
-7 3 -13 10 -13 17 0 47 -36 39 -46 -4 -4 -2 -4 4 -1 9 5 44 -25 44 -38 0 -4
49 -55 203 -212 28 -29 48 -53 45 -53 -6 0 34 -44 117 -131 19 -20 35 -39 35
-42 0 -3 20 -27 45 -52 25 -26 42 -52 38 -58 -3 -6 -1 -7 5 -3 7 4 12 3 12 -2
0 -5 15 -24 33 -42 17 -18 25 -29 17 -25 -8 4 0 -5 18 -22 17 -16 32 -34 32
-39 0 -5 9 -16 20 -24 11 -8 20 -18 20 -23 0 -5 11 -18 26 -29 14 -11 23 -22
20 -25 -2 -3 9 -18 25 -35 16 -17 26 -35 22 -41 -3 -6 -1 -7 6 -3 6 4 14 0 18
-11 4 -10 15 -25 25 -34 10 -9 18 -19 18 -23 0 -3 8 -15 18 -25 31 -35 43 -51
37 -51 -3 0 3 -8 13 -18 9 -10 26 -31 37 -46 11 -16 26 -34 33 -42 7 -8 10
-14 6 -14 -4 0 3 -9 16 -20 13 -11 21 -20 18 -20 -4 0 7 -14 23 -31 16 -17 27
-34 24 -38 -2 -4 5 -14 16 -21 10 -8 19 -20 19 -27 0 -7 5 -13 10 -13 6 0 10
-6 10 -14 0 -8 7 -17 16 -20 8 -3 12 -10 9 -16 -3 -5 -1 -10 4 -10 6 0 11 -6
11 -14 0 -8 7 -17 16 -20 8 -3 13 -10 10 -14 -3 -5 4 -15 15 -22 10 -8 19 -18
19 -23 0 -5 7 -15 15 -24 8 -8 12 -19 9 -25 -4 -6 -3 -8 3 -5 5 4 16 -6 24
-21 8 -15 20 -33 27 -40 7 -8 9 -18 6 -24 -4 -7 -2 -8 4 -4 7 4 12 1 12 -8 0
-9 5 -16 10 -16 6 0 10 -7 10 -15 0 -8 5 -15 10 -15 6 0 10 -7 10 -15 0 -8 5
-15 10 -15 6 0 10 -7 10 -15 0 -8 3 -15 8 -15 4 0 13 -9 20 -21 11 -17 11 -20
0 -13 -7 4 -1 -5 14 -20 15 -16 26 -32 23 -36 -3 -4 2 -11 11 -14 9 -4 14 -9
11 -12 -3 -3 3 -14 14 -25 11 -11 17 -24 14 -29 -4 -6 -1 -10 5 -10 6 0 15
-10 20 -22 13 -31 33 -61 45 -70 6 -4 6 -8 2 -8 -5 0 -1 -7 7 -16 9 -8 13 -20
10 -26 -4 -7 -2 -8 4 -4 7 4 12 2 12 -3 0 -6 0 -13 0 -16 0 -3 9 -14 20 -25
12 -12 18 -25 15 -29 -2 -5 2 -12 11 -15 8 -3 12 -10 9 -16 -3 -5 -1 -10 6
-10 7 0 9 -3 6 -7 -4 -3 0 -11 8 -17 7 -6 15 -18 17 -26 2 -8 11 -23 20 -34
10 -10 15 -23 12 -28 -3 -4 0 -8 5 -8 6 0 11 -6 11 -14 0 -7 7 -19 15 -26 8
-7 12 -16 9 -21 -3 -5 0 -9 5 -9 6 0 11 -9 11 -20 0 -11 4 -20 9 -20 5 0 21
-26 37 -57 15 -32 32 -61 37 -64 5 -4 6 -12 2 -19 -5 -9 -4 -11 3 -6 11 6 14
0 11 -20 0 -4 4 -10 9 -13 6 -3 12 -13 14 -21 2 -8 9 -21 16 -28 7 -8 10 -17
7 -22 -3 -4 2 -11 11 -14 8 -3 13 -10 10 -15 -4 -5 -1 -11 4 -13 6 -2 12 -13
13 -25 0 -12 3 -20 6 -17 5 5 56 -97 53 -108 -1 -5 2 -8 7 -8 8 0 24 -37 22
-52 -1 -5 4 -8 10 -8 5 0 8 -4 5 -9 -4 -5 -2 -11 3 -13 5 -1 11 -10 13 -18 2
-8 9 -21 16 -28 7 -8 10 -18 7 -23 -4 -5 -1 -9 5 -9 6 0 8 -4 5 -10 -3 -5 -2
-10 4 -10 8 0 22 -27 26 -50 0 -3 6 -15 13 -27 7 -13 9 -23 5 -23 -4 0 -3 -4
4 -8 6 -4 13 -14 15 -22 2 -8 9 -21 16 -28 7 -8 10 -18 7 -23 -4 -5 -1 -9 4
-9 6 0 10 -3 9 -7 -1 -5 9 -30 22 -58 12 -27 23 -56 23 -62 0 -7 4 -13 9 -13
4 0 8 -9 8 -20 0 -11 5 -20 11 -20 6 0 8 -7 5 -16 -4 -10 -2 -13 6 -8 8 5 9 2
5 -9 -3 -10 -3 -17 2 -17 4 0 14 -19 21 -42 8 -24 17 -45 20 -48 9 -7 45 -104
42 -112 -1 -5 3 -8 9 -8 6 0 9 -6 6 -14 -3 -8 -1 -16 4 -18 6 -2 11 -10 13
-18 1 -8 8 -25 14 -38 7 -12 10 -26 7 -31 -3 -5 -1 -11 4 -13 5 -1 11 -12 13
-23 1 -11 9 -26 16 -34 7 -7 11 -19 8 -27 -3 -7 0 -14 5 -16 6 -2 12 -12 14
-23 2 -11 4 -21 5 -22 2 -2 3 -6 5 -10 1 -5 7 -21 14 -38 36 -83 69 -189 64
-199 -3 -6 -3 -8 2 -4 9 8 56 -122 48 -134 -2 -5 1 -8 7 -8 7 0 10 -6 7 -14
-3 -8 -2 -16 3 -18 5 -2 11 -14 12 -28 2 -14 6 -27 10 -30 4 -3 10 -17 12 -30
2 -14 5 -26 7 -27 1 -2 2 -6 4 -10 1 -5 5 -16 9 -25 4 -9 9 -25 11 -35 2 -10
4 -18 5 -18 1 0 3 -7 5 -15 2 -8 10 -34 19 -57 8 -24 13 -43 9 -43 -3 0 -1 -6
5 -13 6 -7 13 -24 15 -37 2 -14 7 -32 10 -40 9 -24 29 -90 32 -108 2 -9 4 -18
5 -19 2 -2 3 -6 4 -10 2 -5 8 -28 15 -53 7 -25 15 -53 16 -62 2 -10 6 -22 9
-26 3 -5 7 -19 10 -33 3 -13 8 -37 12 -54 4 -16 7 -38 8 -47 0 -10 3 -18 7
-18 3 0 10 -19 14 -42 5 -24 10 -50 11 -58 2 -8 4 -24 6 -35 2 -11 6 -22 10
-25 4 -4 9 -23 10 -43 2 -20 6 -37 9 -37 4 0 9 -19 13 -42 8 -55 13 -77 21
-108 4 -14 9 -36 10 -50 2 -14 4 -25 5 -25 2 0 4 -9 6 -20 1 -11 5 -30 8 -42
12 -48 17 -69 21 -98 3 -16 7 -41 10 -55 4 -14 8 -36 9 -50 2 -14 6 -32 9 -40
3 -8 9 -37 13 -65 4 -27 9 -57 10 -65 2 -8 6 -35 9 -60 4 -25 8 -52 11 -61 4
-15 8 -43 19 -124 2 -16 6 -41 9 -54 3 -14 8 -47 11 -75 3 -28 8 -62 10 -76 7
-47 18 -137 30 -260 3 -25 7 -58 9 -75 8 -49 23 -220 41 -465 25 -332 26
-1029 1 -1400 -13 -193 -16 -228 -20 -265 -3 -22 -8 -67 -11 -100 -3 -33 -8
-78 -10 -100 -3 -22 -7 -53 -9 -70 -13 -110 -17 -143 -21 -165 -4 -24 -14 -92
-20 -135 -3 -23 -15 -103 -18 -125 -2 -8 -5 -19 -8 -25 -4 -5 -5 -19 -3 -29 1
-11 0 -24 -4 -30 -3 -6 -7 -22 -8 -36 -1 -14 -5 -41 -9 -60 -4 -19 -8 -44 -10
-55 -3 -19 -13 -73 -20 -105 -2 -8 -4 -15 -5 -15 -1 0 -3 -9 -4 -20 -4 -28
-15 -86 -21 -112 -5 -22 -8 -37 -20 -93 -13 -60 -15 -71 -21 -92 -11 -48 -16
-73 -17 -85 0 -7 -4 -13 -8 -13 -4 0 -5 -8 -2 -19 3 -10 0 -22 -6 -25 -5 -4
-8 -13 -5 -20 3 -8 1 -17 -5 -20 -6 -4 -8 -13 -5 -20 3 -8 1 -17 -5 -20 -6 -4
-8 -13 -4 -21 3 -8 0 -15 -6 -15 -6 0 -8 -7 -5 -15 4 -8 1 -22 -6 -30 -7 -8
-10 -15 -7 -15 3 0 1 -15 -4 -32 -6 -18 -12 -43 -15 -55 -2 -12 -8 -33 -14
-47 -5 -13 -6 -27 -3 -30 4 -3 1 -6 -5 -6 -6 0 -9 -6 -6 -14 3 -8 0 -17 -5
-21 -6 -3 -9 -11 -6 -16 4 -5 3 -15 -2 -21 -8 -14 -8 -15 -18 -62 -3 -16 -10
-37 -16 -48 -5 -10 -7 -18 -3 -18 3 0 1 -7 -6 -15 -7 -8 -10 -15 -7 -15 3 0
-1 -16 -9 -35 -8 -19 -11 -35 -8 -35 4 0 1 -7 -6 -15 -7 -8 -10 -15 -6 -15 3
0 0 -17 -8 -37 -8 -21 -17 -47 -22 -58 -4 -11 -9 -28 -10 -38 -2 -9 -13 -43
-25 -75 -11 -31 -22 -68 -25 -81 -3 -14 -8 -29 -12 -35 -3 -6 -8 -20 -9 -30
-2 -11 -8 -25 -13 -31 -5 -7 -7 -15 -3 -18 3 -4 1 -7 -5 -7 -7 0 -11 -3 -10
-7 2 -7 -15 -66 -29 -103 -4 -8 -7 -18 -8 -22 -2 -5 -4 -11 -5 -15 -1 -5 -2
-11 -1 -15 0 -5 -4 -8 -9 -8 -5 0 -9 -3 -8 -7 2 -8 -21 -81 -31 -98 -3 -5 -6
-14 -7 -20 -1 -5 -8 -23 -15 -40 -7 -16 -12 -33 -11 -37 1 -5 -3 -8 -9 -8 -5
0 -8 -4 -5 -8 3 -5 -1 -20 -9 -35 -8 -15 -11 -27 -7 -27 3 0 1 -5 -6 -12 -7
-7 -12 -20 -12 -30 0 -10 -4 -18 -10 -18 -5 0 -9 -3 -9 -7 1 -5 0 -10 -1 -13
-1 -3 -3 -14 -5 -25 -2 -11 -8 -21 -14 -23 -5 -2 -8 -9 -5 -16 3 -8 -2 -21
-11 -30 -9 -9 -13 -16 -9 -16 3 0 1 -7 -6 -15 -7 -8 -9 -15 -6 -15 4 0 1 -10
-6 -22 -6 -13 -13 -29 -14 -37 -2 -8 -6 -17 -11 -20 -4 -3 -9 -14 -11 -24 -2
-10 -12 -34 -22 -53 -11 -19 -17 -34 -14 -34 4 0 -1 -12 -11 -26 -9 -14 -18
-35 -21 -47 -2 -12 -8 -23 -14 -25 -6 -2 -8 -8 -4 -13 3 -5 1 -9 -4 -9 -5 0
-9 -6 -9 -12 0 -7 -15 -44 -34 -83 -18 -38 -34 -72 -35 -75 -1 -3 -5 -15 -9
-27 -4 -13 -12 -23 -17 -23 -5 0 -7 -4 -3 -9 3 -5 -2 -17 -11 -25 -8 -9 -13
-16 -10 -16 3 0 -8 -26 -23 -57 -16 -32 -32 -68 -35 -80 -4 -13 -12 -23 -17
-23 -6 0 -7 -5 -4 -10 3 -6 1 -10 -4 -10 -6 0 -10 -3 -9 -7 3 -13 -36 -93 -45
-93 -4 0 -5 -5 -2 -10 3 -5 1 -10 -5 -10 -6 0 -9 -4 -6 -9 3 -5 -1 -12 -10
-15 -8 -3 -13 -10 -10 -15 9 -13 -4 -42 -15 -35 -5 3 -8 2 -7 -3 4 -14 -13
-53 -23 -53 -6 0 -8 -4 -4 -9 3 -5 0 -15 -7 -23 -7 -7 -14 -20 -16 -28 -2 -8
-8 -17 -13 -18 -5 -2 -7 -7 -4 -12 3 -5 -2 -16 -11 -24 -8 -9 -13 -16 -9 -16
4 0 -3 -12 -14 -26 -12 -15 -21 -33 -21 -40 0 -8 -5 -14 -11 -14 -5 0 -8 -4
-5 -9 3 -5 -3 -19 -13 -32 -10 -13 -21 -34 -25 -46 -4 -13 -12 -23 -17 -23 -6
0 -8 -4 -5 -9 3 -5 -1 -14 -9 -21 -8 -7 -15 -19 -15 -26 0 -8 -4 -14 -10 -14
-5 0 -9 -3 -8 -7 3 -15 -25 -62 -34 -57 -5 3 -7 2 -6 -3 4 -15 -13 -53 -24
-53 -6 0 -8 -3 -5 -7 4 -3 -1 -12 -11 -20 -9 -8 -10 -11 -3 -7 9 4 4 -7 -9
-27 -13 -19 -28 -36 -32 -37 -5 -2 -6 -8 -2 -13 3 -5 0 -9 -6 -9 -6 0 -9 -4
-6 -8 3 -5 -3 -18 -14 -29 -10 -12 -16 -23 -13 -27 3 -3 -2 -8 -11 -12 -9 -3
-13 -10 -11 -15 3 -4 -3 -17 -14 -28 -11 -11 -17 -22 -13 -25 3 -3 0 -6 -7 -6
-7 0 -10 -4 -7 -8 3 -5 -5 -19 -17 -33 -12 -14 -23 -31 -25 -39 -2 -8 -8 -16
-13 -18 -5 -2 -9 -10 -9 -18 0 -9 -5 -12 -12 -8 -6 4 -8 3 -4 -4 3 -6 0 -17
-8 -25 -8 -8 -12 -17 -9 -21 4 -3 1 -6 -5 -6 -7 0 -12 -6 -12 -14 0 -8 -7 -17
-16 -20 -8 -3 -13 -10 -10 -14 3 -5 -6 -20 -20 -35 -13 -15 -24 -30 -24 -34 0
-5 -7 -16 -15 -26 -8 -9 -12 -17 -9 -17 3 0 -6 -14 -20 -31 -14 -17 -26 -34
-26 -38 0 -4 -9 -17 -20 -29 -12 -12 -18 -22 -15 -22 5 0 -17 -28 -42 -55 -7
-7 -9 -15 -6 -19 4 -3 1 -6 -5 -6 -6 0 -14 -9 -17 -20 -3 -11 -12 -26 -18 -32
-7 -7 -25 -33 -42 -58 -16 -25 -32 -47 -35 -50 -3 -3 -9 -12 -15 -21 -40 -64
-80 -117 -87 -113 -4 3 -8 -2 -8 -10 0 -8 -6 -21 -13 -28 -7 -7 -23 -30 -36
-50 -12 -21 -27 -38 -32 -38 -5 0 -9 -5 -9 -11 0 -7 -12 -23 -27 -37 -16 -13
-21 -21 -13 -17 8 3 5 -2 -7 -13 -12 -11 -20 -22 -17 -25 3 -3 -3 -12 -15 -19
-12 -7 -21 -17 -21 -21 0 -15 -37 -57 -44 -50 -3 3 -6 -1 -6 -9 0 -9 -13 -30
-29 -47 -16 -17 -28 -31 -26 -31 4 0 -31 -43 -62 -77 -13 -13 -23 -27 -23 -31
0 -4 -12 -18 -25 -31 -14 -13 -25 -27 -25 -33 0 -5 -5 -6 -12 -2 -6 4 -8 3 -5
-4 4 -5 -8 -26 -25 -45 -18 -18 -38 -42 -45 -53 -6 -10 -16 -18 -23 -16 -6 1
-9 -2 -5 -8 3 -5 -18 -33 -47 -62 -29 -29 -46 -48 -38 -43 8 5 0 -7 -17 -26
-97 -101 -133 -142 -133 -147 0 -3 8 2 18 11 10 10 22 14 27 10 4 -5 5 -2 1 5
-4 6 -3 12 1 12 11 0 49 29 71 53 9 9 20 17 24 17 5 0 17 8 27 18 55 50 70 62
78 62 4 0 14 9 21 20 7 11 18 20 25 20 7 0 18 9 25 20 7 12 17 18 21 15 5 -2
12 2 15 11 3 8 11 12 16 9 6 -4 9 -2 8 3 -4 11 55 62 72 62 6 0 8 5 5 10 -3 6
-1 10 5 10 6 0 22 12 35 26 14 15 25 24 25 20 0 -4 12 6 26 21 15 15 31 27 36
25 5 -1 7 2 3 7 -6 10 34 37 48 33 5 -1 6 1 3 6 -3 5 6 19 19 30 14 12 25 19
25 15 0 -4 7 3 16 15 8 12 20 19 26 16 6 -4 9 -3 6 2 -3 5 5 19 18 32 13 12
24 20 24 17 0 -3 11 5 23 19 13 14 27 22 31 18 4 -4 6 0 4 8 -2 9 3 14 12 12
8 -2 12 0 7 4 -8 8 20 44 35 44 5 0 27 19 48 42 22 23 40 37 41 32 0 -5 4 1 9
13 5 13 17 23 25 23 9 0 13 5 10 10 -3 6 -2 10 3 10 6 0 39 29 75 65 35 35 68
61 72 57 5 -4 5 -2 2 4 -7 11 29 51 42 47 3 -2 6 1 6 6 0 13 14 26 28 26 7 0
12 7 12 15 1 8 6 14 13 13 7 -2 11 3 9 10 -1 6 4 11 11 9 8 -1 11 2 8 7 -6 9
13 29 27 29 5 0 12 4 15 8 4 4 0 3 -8 -1 -8 -5 -2 5 14 22 17 18 35 29 40 26
6 -4 8 -3 4 2 -5 4 17 32 46 62 30 29 52 53 49 53 -3 0 0 7 7 15 7 8 17 12 24
8 6 -3 8 -3 4 1 -8 10 14 36 25 29 4 -2 6 0 5 5 -2 4 14 25 35 45 20 20 37 41
37 46 0 5 8 15 17 22 15 12 16 12 8 -1 -5 -9 -5 -12 1 -7 5 5 9 12 9 17 0 4
14 21 31 38 17 16 34 37 37 46 4 10 12 14 17 11 6 -4 9 -1 8 7 -2 7 3 12 9 11
7 -2 12 1 10 5 -3 11 50 72 57 65 3 -4 6 1 6 11 0 10 5 14 12 10 6 -4 8 -3 5
3 -4 6 16 35 44 64 28 30 51 56 51 59 0 3 4 4 10 2 5 -1 7 2 4 7 -4 5 5 18 19
30 15 11 26 22 26 25 -1 3 8 16 19 28 10 13 26 32 35 43 9 11 13 14 9 6 -5
-10 -3 -12 5 -7 7 5 10 10 7 13 -10 10 15 44 26 37 7 -4 8 -3 4 4 -3 6 3 16
14 22 11 6 18 15 15 20 -3 5 4 14 15 20 11 6 20 16 20 22 0 6 11 21 24 33 14
13 22 25 20 28 -3 3 6 13 20 22 14 10 23 21 20 26 -3 5 -1 9 4 9 5 0 15 11 22
25 7 13 18 22 23 18 6 -3 7 -2 4 4 -4 5 1 19 11 29 9 10 30 39 47 63 16 24 35
45 42 48 7 3 10 9 7 14 -3 5 2 12 10 15 9 3 16 11 16 17 0 6 12 22 28 35 15
13 21 20 13 16 -7 -4 -3 7 9 24 13 17 29 33 37 36 8 3 12 10 9 15 -3 5 7 23
23 40 16 17 26 31 23 31 -4 0 4 10 18 21 14 11 18 18 10 14 -8 -4 -5 2 7 13
12 11 19 22 16 26 -4 3 -1 6 5 6 7 0 12 6 12 14 0 8 7 17 16 20 8 3 12 10 9
16 -3 5 -2 10 4 10 5 0 13 9 16 20 4 11 11 18 16 14 5 -3 8 -2 7 3 -4 11 34
73 45 73 4 0 6 4 3 9 -3 5 5 20 19 35 13 14 21 26 17 26 -4 0 2 7 12 15 11 8
16 15 10 15 -5 0 2 10 16 21 14 11 18 17 10 13 -9 -4 -6 3 6 17 12 13 24 32
27 42 4 9 11 17 17 17 6 0 9 4 6 8 -3 5 4 18 14 30 11 12 20 26 20 32 0 5 5
10 11 10 5 0 7 5 4 10 -3 6 -1 10 4 10 6 0 11 7 11 15 0 8 5 15 10 15 6 0 10
7 10 16 0 8 5 12 10 9 6 -4 9 -3 8 2 -4 17 14 53 24 47 6 -4 8 -2 5 3 -4 6 2
22 13 36 11 14 20 30 20 35 0 5 7 13 16 16 8 3 13 10 10 15 -4 5 5 23 19 39
13 16 22 32 18 35 -3 4 2 9 11 13 9 3 13 10 11 15 -3 4 3 17 15 29 11 11 20
21 19 23 -3 7 26 57 33 57 4 0 7 3 6 8 -3 12 25 62 34 62 5 0 7 4 4 8 -3 5 4
19 15 30 11 12 17 22 13 22 -4 0 1 9 11 20 10 11 14 20 9 20 -5 0 0 7 10 15
11 8 16 15 12 15 -4 0 1 14 11 30 9 16 21 30 26 30 4 0 6 4 2 9 -3 5 0 15 7
23 7 7 14 20 16 28 2 8 8 17 13 18 5 2 7 8 3 13 -3 5 0 9 6 9 6 0 8 5 5 10 -3
6 -1 10 5 10 6 0 9 4 6 8 -3 5 3 18 12 28 10 10 18 21 19 24 2 20 16 50 24 50
6 0 7 5 4 10 -3 6 -1 10 4 10 6 0 10 3 9 8 -4 14 58 133 66 125 4 -4 4 0 0 10
-4 11 -1 17 7 17 7 0 9 3 6 6 -4 4 2 19 12 33 10 14 20 29 21 33 7 28 26 68
31 68 4 0 10 13 14 30 4 16 11 30 16 30 6 0 8 4 4 9 -3 5 2 16 10 25 9 8 16
19 16 23 1 4 8 24 16 43 9 19 15 38 15 43 -1 4 3 7 10 7 6 0 9 3 5 6 -3 4 5
26 18 49 13 24 21 46 18 49 -4 3 -1 6 5 6 7 0 12 3 11 8 -2 15 14 52 22 52 5
0 8 3 7 8 -4 13 26 82 35 82 4 0 6 3 3 8 -2 4 3 23 11 42 9 19 15 38 15 43 -1
4 3 7 8 7 5 0 9 3 8 8 -1 4 3 17 10 30 7 12 10 22 6 22 -3 0 1 11 10 25 9 13
16 31 16 40 0 8 5 15 11 15 5 0 7 5 4 10 -3 6 -1 10 5 10 6 0 8 4 5 10 -3 5 0
20 7 32 7 13 13 25 13 28 2 5 20 51 32 80 3 8 5 18 5 23 -1 4 3 7 8 7 5 0 9 3
8 8 -1 4 4 23 11 42 8 19 13 38 12 43 0 4 3 7 9 7 5 0 7 6 4 14 -3 7 1 20 8
27 7 8 13 20 14 27 3 38 5 43 13 38 5 -3 8 0 7 7 -2 18 46 151 57 158 5 4 7
11 4 15 -2 5 0 20 6 34 5 14 12 34 14 45 2 10 7 22 11 25 4 3 9 16 11 30 1 14
7 28 13 31 5 3 9 9 8 13 -4 15 25 106 34 106 5 0 7 3 3 6 -3 4 0 22 8 40 8 19
12 34 9 34 -2 0 2 14 11 30 9 16 13 30 11 30 -3 0 2 19 10 43 9 23 17 49 19
57 2 8 4 15 5 15 1 0 3 11 6 25 2 14 7 32 11 40 3 8 7 18 8 23 2 4 4 9 5 12 1
3 4 10 5 15 1 6 4 13 5 18 1 4 3 12 5 17 1 6 3 12 4 15 2 3 4 14 6 24 2 11 7
31 11 45 4 14 7 29 6 34 -1 4 3 7 9 7 5 0 7 5 4 10 -3 6 -3 16 1 22 5 7 9 19
10 28 3 20 12 55 14 55 1 0 3 7 5 15 2 8 6 25 9 38 14 52 17 68 22 91 3 13 9
32 14 41 5 10 7 20 4 23 -3 2 1 21 10 40 8 19 12 37 10 40 -3 2 1 17 7 33 7
16 11 39 10 52 0 12 3 22 8 22 5 0 7 9 4 20 -3 11 -1 20 3 20 5 0 9 10 10 23
0 12 4 33 7 47 8 31 15 65 24 110 9 47 10 50 13 53 1 1 3 11 4 22 5 32 15 88
22 115 3 14 6 33 6 43 -1 9 3 17 7 17 4 0 7 10 7 23 0 12 6 54 13 92 7 39 15
80 17 93 2 12 6 34 9 50 2 15 7 45 10 67 3 22 7 51 10 65 3 14 8 43 11 65 3
22 7 51 10 65 2 14 7 45 10 70 3 25 7 56 9 70 2 14 7 50 11 80 3 30 8 66 10
80 2 14 6 50 10 80 3 30 7 66 9 80 1 14 6 61 10 105 3 44 8 91 10 105 3 14 7
59 10 100 3 41 7 100 10 130 3 30 7 96 10 145 3 50 8 140 12 200 9 142 8 1018
-1 1155 -4 58 -9 146 -12 195 -6 110 -13 207 -30 395 -8 89 -11 116 -18 180
-4 30 -10 78 -12 105 -3 28 -7 66 -10 85 -2 19 -6 53 -9 75 -2 22 -7 54 -10
70 -4 17 -9 50 -11 75 -3 25 -7 59 -10 75 -2 17 -6 46 -8 65 -3 19 -5 35 -6
35 -3 0 -10 40 -14 80 -3 22 -5 40 -6 40 -3 0 -10 41 -14 80 -3 22 -6 40 -7
40 -1 0 -3 9 -5 20 -5 37 -13 80 -19 105 -10 48 -17 85 -20 110 -2 14 -4 25
-5 25 -3 0 -6 16 -14 67 -2 14 -7 34 -10 45 -6 22 -18 80 -21 108 -1 11 -5 27
-8 35 -6 14 -10 30 -23 100 -3 14 -7 32 -8 40 -2 8 -6 22 -9 30 -5 14 -25 94
-32 130 -2 8 -8 35 -15 60 -11 39 -16 65 -24 105 -1 6 -5 16 -9 23 -5 6 -5 17
-2 22 3 6 2 10 -3 10 -5 0 -9 6 -10 13 0 6 -3 23 -7 37 -3 14 -8 32 -10 40 -2
8 -4 15 -6 15 -1 0 -3 9 -4 20 -2 11 -10 39 -19 63 -8 23 -13 42 -11 42 2 0
-5 24 -16 52 -10 29 -19 63 -19 75 0 12 -4 24 -9 27 -7 5 -16 34 -25 86 -1 3
-5 11 -9 18 -5 6 -5 17 -2 22 3 6 2 10 -3 10 -5 0 -13 15 -17 33 -8 35 -11 44
-15 52 -1 3 -4 10 -5 15 -1 6 -4 12 -5 15 -1 3 -3 8 -5 13 -1 4 -7 20 -13 35
-7 16 -10 33 -6 38 3 5 0 9 -5 9 -6 0 -10 3 -10 8 1 4 0 9 -1 12 -1 3 -3 12
-5 20 -8 37 -10 45 -17 50 -4 3 -9 15 -11 25 -2 11 -7 29 -11 40 -5 11 -12 31
-16 45 -4 14 -12 34 -16 45 -4 11 -8 23 -9 28 -2 4 -4 9 -5 12 -9 17 -24 70
-21 74 2 2 -2 7 -8 10 -6 4 -12 16 -15 26 -2 11 -7 29 -10 40 -4 11 -7 24 -6
28 0 4 -6 14 -14 23 -8 8 -13 21 -10 29 4 8 2 15 -3 15 -10 0 -38 77 -35 93 1
4 -2 7 -8 7 -5 0 -10 9 -10 19 0 11 -4 23 -10 26 -5 3 -10 17 -10 31 0 13 -4
24 -8 24 -10 0 -33 61 -26 71 3 5 1 9 -4 9 -5 0 -13 10 -17 23 -4 12 -8 24 -9
27 -14 32 -24 57 -25 65 -1 6 -9 20 -17 33 -8 12 -12 28 -8 34 4 7 3 8 -4 4
-11 -6 -17 12 -13 37 0 4 -4 7 -10 7 -5 0 -7 5 -4 10 3 6 1 10 -4 10 -6 0 -10
3 -9 8 1 4 -3 17 -10 28 -6 12 -8 24 -5 28 3 3 1 6 -6 6 -7 0 -10 4 -7 9 4 5
2 11 -4 13 -6 2 -12 13 -14 25 -3 12 -12 33 -21 47 -10 14 -13 26 -9 26 5 0 3
4 -4 9 -7 4 -14 18 -15 29 -1 12 -5 22 -10 22 -4 0 -5 5 -2 10 3 6 2 10 -3 10
-9 0 -57 98 -57 118 0 7 -7 17 -15 22 -8 5 -11 10 -7 10 5 0 1 7 -8 16 -9 9
-14 23 -11 31 3 7 -1 16 -10 20 -8 3 -13 12 -10 20 3 7 -1 16 -10 20 -8 3 -13
12 -10 20 3 8 2 11 -3 8 -9 -5 -27 32 -23 48 1 4 -3 7 -9 7 -5 0 -7 5 -4 10 3
6 3 10 -2 10 -9 0 -39 61 -35 73 1 4 -2 7 -8 7 -5 0 -10 7 -10 16 0 8 -7 22
-15 31 -8 8 -13 19 -10 24 4 5 2 9 -3 9 -9 0 -29 36 -30 54 0 5 -4 12 -9 15
-4 3 -17 24 -28 46 -11 22 -24 43 -30 47 -5 4 -6 8 -2 8 5 0 1 7 -7 16 -9 8
-14 20 -11 25 4 5 1 9 -5 9 -6 0 -8 5 -5 10 3 6 2 10 -3 10 -8 0 -42 63 -41
76 0 3 -7 11 -17 18 -11 8 -14 18 -9 26 5 9 4 11 -3 6 -11 -6 -16 5 -9 20 1 3
-6 10 -16 15 -9 6 -15 14 -12 20 4 5 1 9 -4 9 -6 0 -11 7 -11 15 0 8 -5 15
-11 15 -5 0 -7 5 -4 10 3 6 2 10 -4 10 -5 0 -13 10 -17 22 -3 12 -13 28 -20
36 -8 7 -12 18 -9 23 4 5 2 9 -4 9 -14 0 -42 55 -33 65 4 5 2 5 -4 2 -6 -4
-17 6 -23 21 -7 15 -11 27 -9 27 1 0 -7 11 -19 25 -13 13 -23 30 -23 37 0 7
-5 13 -11 13 -5 0 -7 5 -4 10 3 6 1 10 -5 10 -11 0 -35 48 -31 63 1 5 -3 6 -8
2 -6 -3 -13 6 -17 20 -3 14 -9 25 -13 25 -4 0 -15 14 -24 30 -10 17 -16 30
-13 30 3 0 -6 11 -20 25 -14 14 -22 30 -18 37 4 6 3 8 -3 5 -10 -6 -18 3 -22
28 -2 6 -9 14 -17 18 -8 4 -14 13 -14 18 0 6 -7 17 -15 26 -8 8 -12 19 -9 25
4 6 3 8 -3 5 -5 -3 -17 7 -27 24 -9 16 -14 29 -9 29 4 0 -3 7 -15 16 -12 8
-22 22 -22 30 0 8 -4 14 -10 14 -5 0 -10 6 -10 14 0 8 -7 17 -16 20 -8 3 -13
10 -10 15 3 5 -1 12 -10 15 -8 3 -13 10 -10 15 3 5 -1 12 -10 15 -9 4 -14 9
-10 13 3 3 -3 12 -14 20 -11 8 -20 19 -20 24 0 5 -9 19 -20 31 -10 12 -17 26
-13 31 3 6 1 7 -5 3 -11 -7 -17 6 -13 27 1 5 -3 6 -8 2 -6 -3 -15 4 -21 15 -6
11 -9 20 -7 20 3 0 -13 19 -34 42 -22 24 -39 47 -39 51 0 8 -4 14 -45 60 -14
16 -23 33 -19 38 3 5 2 8 -3 7 -4 -2 -9 0 -11 4 -1 4 -15 20 -30 36 -15 15
-34 38 -42 51 -8 13 -23 31 -32 40 -10 8 -18 21 -18 27 0 7 -7 15 -16 18 -9 4
-15 9 -12 12 3 3 -6 18 -21 34 -58 64 -71 80 -71 87 0 5 -9 15 -20 23 -11 8
-20 18 -20 22 0 4 -16 24 -35 44 -19 20 -33 40 -29 45 3 5 -2 9 -11 9 -8 0
-18 7 -22 16 -3 9 -15 26 -27 38 -12 12 -41 46 -66 75 -25 30 -50 60 -57 66
-7 7 -9 16 -5 20 4 5 2 5 -4 2 -7 -4 -18 3 -27 16 -8 12 -32 41 -53 64 -22 23
-64 69 -94 103 -30 34 -65 72 -77 85 -12 13 -19 26 -15 30 4 4 0 5 -8 3 -8 -2
-14 3 -13 9 2 7 -3 12 -10 10 -6 -1 -11 4 -9 11 1 8 -1 11 -6 8 -4 -2 -21 11
-38 31 -16 19 -52 59 -81 88 -29 29 -49 55 -45 59 4 4 3 6 -3 5 -15 -5 -55 33
-48 44 3 6 2 8 -3 5 -12 -7 -75 58 -66 68 4 4 2 4 -4 1 -12 -7 -46 28 -36 38
4 4 2 5 -4 3 -6 -2 -39 25 -74 60 -34 34 -65 62 -69 62 -12 0 -39 38 -33 46 4
4 2 4 -4 1 -11 -6 -44 26 -44 44 0 5 -4 8 -8 5 -5 -3 -24 11 -42 32 -18 20
-33 35 -34 32 0 -2 -11 4 -23 15 -12 10 -20 22 -17 27 3 5 1 7 -4 6 -10 -3
-16 1 -96 77 -27 25 -58 51 -68 56 -10 6 -16 15 -12 22 4 7 4 9 -1 5 -4 -4
-18 4 -31 17 -13 14 -27 26 -31 28 -5 1 -7 5 -6 9 2 5 0 7 -5 5 -4 -1 -14 3
-22 10 -53 43 -87 72 -116 99 -19 17 -48 42 -66 55 -17 13 -42 33 -54 44 -12
11 -35 29 -50 40 -36 26 -71 55 -101 83 -13 12 -26 22 -29 22 -3 0 -12 6 -19
13 -8 6 -26 21 -41 32 -14 11 -34 27 -43 36 -10 8 -25 19 -35 22 -10 4 -14 12
-10 18 4 8 3 9 -4 5 -6 -4 -20 2 -32 14 -11 11 -22 20 -25 20 -7 0 -26 15 -61
47 -13 12 -24 20 -24 18 0 -5 -30 19 -55 43 -8 6 -18 12 -23 12 -6 0 -13 7
-16 16 -3 8 -10 13 -15 9 -5 -3 -16 4 -24 15 -7 11 -16 18 -19 15 -3 -3 -17 6
-32 20 -15 14 -31 25 -37 25 -5 0 -9 5 -9 10 0 6 -7 10 -15 10 -9 0 -18 7 -21
15 -4 8 -13 15 -21 15 -8 0 -11 5 -7 12 4 6 3 8 -4 4 -6 -3 -17 1 -25 9 -9 8
-21 15 -27 15 -6 0 -8 5 -4 12 4 6 3 8 -4 4 -6 -3 -17 0 -24 8 -8 7 -28 21
-46 30 -18 9 -32 21 -32 27 0 6 -4 8 -9 4 -6 -3 -14 2 -19 11 -5 9 -13 17 -18
17 -5 1 -8 6 -6 11 2 5 -3 6 -11 3 -8 -3 -26 6 -42 19 -15 13 -36 26 -46 29
-11 4 -17 11 -13 16 3 5 2 9 -3 8 -22 -4 -34 2 -27 14 4 6 4 9 -1 5 -4 -4 -20
0 -34 10 -14 10 -38 24 -53 32 -16 7 -28 17 -28 22 0 4 -7 8 -15 8 -8 0 -15 5
-15 11 0 5 -4 8 -8 5 -5 -3 -20 5 -33 17 -13 12 -27 23 -31 23 -5 1 -13 2 -19
3 -5 0 -7 6 -4 11 4 6 3 9 -2 8 -13 -3 -53 13 -53 22 0 4 -13 13 -30 19 -16 5
-30 15 -30 22 0 7 -3 9 -6 6 -4 -4 -19 1 -33 11 -14 10 -38 24 -53 32 -16 7
-28 17 -28 22 0 5 -5 6 -10 3 -6 -3 -13 1 -16 9 -3 9 -10 14 -14 11 -5 -3 -16
2 -24 11 -9 8 -16 12 -16 7 0 -4 -6 -1 -13 8 -12 16 -18 19 -38 19 -5 0 -7 5
-3 12 5 7 3 8 -5 4 -7 -5 -20 -1 -29 7 -9 8 -27 18 -40 22 -12 3 -20 11 -17
16 3 5 -1 6 -9 3 -9 -3 -16 -2 -16 3 0 5 -16 15 -35 23 -19 8 -35 18 -35 22 0
5 -4 6 -10 3 -5 -3 -10 -1 -10 6 0 7 -3 9 -6 6 -4 -3 -18 3 -32 13 -13 11 -31
20 -38 20 -8 0 -14 5 -14 11 0 5 -4 7 -10 4 -5 -3 -10 -1 -10 5 0 6 -4 9 -9 5
-5 -3 -15 1 -23 8 -7 7 -15 13 -18 14 -14 0 -80 37 -80 44 0 5 -3 8 -7 8 -14
-3 -73 23 -73 31 0 4 -13 10 -29 13 -16 3 -36 13 -45 22 -9 9 -16 14 -16 10 0
-7 -62 26 -71 38 -3 5 -10 9 -15 8 -20 -1 -54 12 -54 20 0 5 -3 9 -7 8 -19 -3
-52 14 -46 24 3 6 1 7 -5 3 -6 -4 -32 4 -57 18 -25 14 -49 26 -53 26 -18 1
-42 12 -42 21 0 5 -3 8 -7 7 -5 -1 -25 6 -47 15 -21 9 -42 17 -47 17 -5 0 -9
5 -9 12 0 6 -3 8 -7 5 -3 -4 -12 -2 -20 4 -7 6 -13 9 -13 6 0 -4 -21 4 -46 18
l-45 24 7 -32z"/>
<path d="M10438 28315 c-27 -20 -48 -33 -48 -30 0 3 -12 -5 -26 -18 -14 -12
-26 -20 -27 -17 -2 4 -11 -3 -69 -52 -11 -10 -26 -15 -32 -11 -6 3 -8 2 -3 -2
9 -11 -43 -46 -56 -38 -6 3 -8 2 -4 -3 5 -9 -95 -84 -112 -84 -5 0 -11 -7 -15
-15 -3 -8 -12 -15 -20 -15 -7 0 -16 -7 -20 -15 -3 -8 -9 -14 -13 -13 -5 2 -19
-7 -32 -19 -13 -12 -29 -20 -34 -16 -6 3 -7 2 -4 -3 3 -6 -12 -21 -34 -34 -21
-14 -39 -28 -39 -32 0 -5 -6 -8 -14 -8 -8 0 -16 -3 -18 -7 -2 -5 -16 -19 -32
-33 -16 -14 -25 -18 -21 -10 5 8 -8 -2 -29 -22 -21 -21 -44 -35 -50 -31 -6 3
-8 3 -4 -2 10 -10 -62 -66 -75 -58 -6 3 -7 1 -3 -5 3 -6 -3 -16 -16 -23 -12
-7 -36 -25 -53 -41 -16 -16 -42 -35 -56 -43 -15 -8 -29 -22 -33 -31 -4 -9 -9
-14 -12 -11 -3 3 -18 -6 -33 -21 -15 -15 -43 -38 -61 -52 -18 -14 -43 -35 -56
-47 -13 -13 -27 -23 -32 -23 -6 0 -13 -7 -16 -16 -3 -8 -11 -12 -17 -8 -8 4
-9 3 -5 -4 4 -6 -6 -19 -21 -29 -15 -10 -32 -23 -36 -30 -5 -8 -13 -10 -19 -7
-7 4 -8 2 -4 -4 4 -6 -4 -16 -16 -23 -13 -7 -32 -23 -43 -36 -11 -12 -26 -23
-33 -23 -7 0 -10 -4 -7 -10 3 -5 1 -10 -4 -10 -6 0 -21 -11 -33 -25 -11 -13
-25 -22 -30 -19 -5 3 -7 2 -6 -3 2 -4 -1 -10 -6 -13 -5 -3 -32 -27 -59 -55
-28 -27 -54 -49 -59 -47 -4 1 -7 -1 -6 -5 2 -5 0 -9 -5 -10 -4 -2 -24 -21 -44
-42 -20 -22 -41 -37 -46 -34 -6 3 -7 2 -4 -4 6 -10 -31 -48 -48 -48 -5 0 -10
-7 -10 -15 -1 -8 -6 -14 -13 -12 -7 1 -11 -4 -10 -10 2 -7 -3 -12 -10 -10 -6
1 -11 -1 -10 -5 2 -5 -1 -10 -6 -13 -18 -11 -257 -252 -272 -275 -9 -14 -20
-22 -25 -19 -5 3 -8 0 -7 -8 2 -7 -3 -12 -10 -10 -6 1 -11 -3 -10 -10 2 -7 -2
-12 -9 -13 -6 0 -15 -4 -20 -9 -5 -5 -2 -6 7 -1 8 4 2 -6 -15 -22 -16 -16 -34
-27 -40 -25 -5 3 -6 1 -2 -3 8 -9 1 -17 -89 -110 -27 -27 -60 -65 -72 -82 -13
-18 -28 -32 -35 -30 -7 1 -11 -3 -10 -10 2 -6 -9 -21 -22 -31 -14 -11 -25 -25
-25 -32 0 -6 -4 -8 -10 -5 -5 3 -10 1 -10 -6 0 -7 -14 -25 -31 -40 -17 -15
-31 -31 -32 -36 -1 -4 -6 -7 -10 -5 -5 1 -6 -2 -3 -7 4 -5 -2 -16 -12 -23 -9
-7 -25 -26 -35 -41 -10 -15 -23 -25 -29 -21 -6 4 -8 3 -4 -4 3 -5 -12 -29 -33
-51 -22 -23 -37 -41 -34 -41 3 0 0 -7 -7 -15 -7 -8 -17 -12 -23 -8 -5 3 -7 1
-4 -4 4 -6 0 -14 -8 -17 -8 -3 -14 -9 -13 -13 3 -9 -24 -44 -72 -91 -19 -20
-28 -31 -20 -27 8 5 4 -5 -10 -22 -14 -17 -29 -28 -34 -25 -5 3 -6 1 -3 -5 3
-5 -7 -24 -23 -42 -17 -18 -30 -34 -30 -37 0 -3 -12 -16 -26 -29 -14 -13 -26
-27 -27 -32 -1 -4 -5 -7 -9 -6 -5 2 -7 0 -7 -5 3 -19 -2 -33 -11 -27 -5 3 -10
0 -10 -8 0 -8 -13 -29 -30 -47 -16 -18 -30 -35 -30 -39 0 -4 -8 -16 -18 -27
-10 -10 -29 -36 -43 -56 -14 -21 -29 -35 -34 -30 -5 4 -5 2 -1 -5 4 -7 -3 -22
-16 -35 -13 -13 -22 -26 -21 -29 1 -4 -8 -18 -20 -31 -12 -13 -28 -36 -36 -51
-8 -14 -18 -24 -23 -21 -5 3 -8 2 -7 -3 4 -16 -13 -43 -24 -36 -6 3 -7 1 -3
-5 4 -6 -2 -20 -14 -32 -11 -11 -17 -20 -12 -20 4 -1 -2 -8 -14 -18 -11 -9
-20 -20 -20 -24 1 -4 -7 -17 -16 -28 -10 -11 -18 -24 -19 -28 0 -4 -16 -27
-35 -52 -18 -25 -38 -55 -44 -68 -5 -12 -16 -25 -25 -28 -8 -3 -13 -10 -10
-14 4 -6 -4 -18 -44 -66 -5 -7 -8 -14 -5 -17 2 -2 -2 -10 -11 -17 -8 -7 -15
-18 -15 -25 0 -7 -7 -16 -16 -19 -8 -3 -13 -10 -10 -14 3 -5 -4 -18 -14 -30
-11 -12 -20 -24 -20 -28 0 -4 -8 -13 -17 -21 -10 -8 -12 -11 -4 -8 9 5 8 -1
-4 -19 -10 -14 -22 -26 -27 -26 -5 0 -6 -4 -3 -10 3 -5 1 -10 -5 -10 -6 0 -9
-4 -6 -9 3 -5 -1 -14 -9 -21 -8 -7 -15 -19 -15 -26 0 -8 -4 -14 -10 -14 -5 0
-10 -7 -10 -15 0 -8 -5 -15 -11 -15 -5 0 -8 -4 -5 -9 3 -5 -1 -14 -9 -21 -8
-7 -15 -18 -15 -25 0 -8 -3 -15 -7 -17 -10 -4 -41 -56 -54 -90 -6 -16 -15 -28
-20 -28 -5 0 -9 -7 -9 -15 0 -8 -5 -15 -11 -15 -5 0 -7 -4 -4 -10 3 -5 1 -10
-5 -10 -6 0 -9 -4 -5 -9 3 -6 -2 -14 -11 -19 -9 -5 -15 -12 -15 -15 3 -19 0
-27 -16 -43 -10 -10 -18 -20 -18 -24 0 -15 -49 -100 -57 -100 -5 0 -6 -4 -3
-10 3 -5 1 -10 -4 -10 -6 0 -10 -3 -9 -7 3 -11 -32 -76 -46 -85 -6 -5 -7 -8
-1 -8 6 0 3 -5 -5 -10 -12 -8 -11 -10 8 -10 12 0 22 4 22 9 0 5 14 14 30 21
17 7 30 15 30 19 0 4 23 20 52 35 28 15 58 34 65 42 8 8 18 12 23 9 4 -3 10 2
14 10 3 8 12 15 21 15 8 0 15 5 15 10 0 6 5 10 11 10 6 0 24 9 40 21 16 11 29
17 29 12 0 -4 5 0 11 10 6 9 14 15 20 12 5 -4 9 -1 9 4 0 6 7 11 15 11 8 0 15
5 15 11 0 5 5 7 10 4 6 -3 10 -1 10 4 0 6 6 11 13 11 8 0 24 9 37 20 13 11 29
20 35 20 7 0 18 6 25 14 6 8 19 12 27 9 11 -4 14 -2 9 5 -6 11 5 17 27 13 4 0
7 4 7 10 0 5 5 7 10 4 6 -3 10 -1 10 5 0 10 48 35 63 32 4 -1 7 2 7 7 0 8 26
19 43 17 5 -1 13 7 18 17 6 9 14 15 20 12 5 -4 9 -3 9 2 0 8 48 33 63 32 4 0
15 7 23 16 9 8 20 13 25 10 5 -4 9 -1 9 5 0 6 5 8 10 5 6 -3 10 -2 10 3 0 12
49 34 60 27 5 -3 13 3 19 12 6 10 11 14 11 10 0 -5 7 -1 16 7 8 9 19 14 24 11
5 -3 10 0 12 5 2 6 11 12 20 13 9 2 23 9 32 16 8 7 20 10 26 6 5 -3 10 -2 10
3 0 8 35 23 49 21 2 0 7 3 10 8 3 4 24 16 46 27 22 10 52 25 68 33 15 8 27 12
27 8 0 -3 12 3 27 12 15 10 27 16 28 14 0 -3 12 3 27 13 15 10 32 15 38 11 5
-3 10 -1 10 5 0 6 5 8 10 5 6 -3 10 -1 10 5 0 7 7 9 16 6 8 -3 12 -2 9 4 -3 6
1 10 9 10 8 0 49 16 92 35 42 19 80 33 84 30 5 -3 10 0 12 5 2 6 13 12 26 13
12 0 22 4 22 8 0 7 50 23 63 21 4 -1 7 3 7 9 0 6 7 9 15 5 8 -3 15 -2 15 3 0
8 45 24 52 20 2 -1 22 8 46 20 23 12 42 19 42 16 0 -3 11 2 25 11 13 8 29 13
35 9 5 -3 10 -1 10 6 0 7 3 9 7 6 3 -4 11 -2 18 3 6 5 22 12 36 14 13 3 26 5
29 6 3 2 8 2 13 1 4 0 7 4 7 11 0 6 3 8 7 5 3 -4 12 -2 20 4 7 6 13 8 13 4 0
-4 6 -2 13 4 8 6 22 12 33 14 10 2 32 9 48 16 16 6 36 13 45 15 9 2 23 6 31 9
37 14 144 49 159 52 9 2 17 4 19 5 1 2 5 3 10 4 4 1 13 5 20 9 6 5 12 6 12 3
0 -3 16 2 35 10 19 8 35 11 35 8 0 -4 6 -1 13 5 8 6 24 13 38 15 13 3 24 5 24
6 0 1 7 3 15 5 8 2 24 6 35 9 11 2 40 12 64 20 24 9 56 19 70 22 30 6 31 6 91
24 61 18 61 18 94 25 16 3 38 11 48 16 11 6 26 8 34 5 8 -3 14 -1 14 5 0 6 7
9 15 6 8 -4 17 -2 20 2 2 5 25 12 50 15 47 8 53 12 61 48 7 33 12 52 14 58 1
3 2 8 1 12 0 4 4 20 10 35 6 15 12 37 14 48 1 11 8 40 15 65 22 75 29 102 37
145 3 17 9 38 14 48 5 9 7 17 3 17 -3 0 -1 6 5 13 6 8 8 17 4 20 -3 4 -1 12 4
19 6 7 11 20 11 28 0 8 3 25 6 38 3 12 8 31 11 42 3 11 7 29 10 40 3 11 7 28
9 38 2 9 9 37 16 62 7 25 14 53 16 62 2 10 6 27 9 38 3 11 7 29 10 40 3 11 7
29 10 40 3 11 7 28 9 38 2 9 10 37 17 62 7 25 13 50 15 55 1 6 10 39 19 75 20
80 23 97 31 138 3 17 10 32 14 32 5 0 6 9 3 20 -3 11 -1 20 5 20 6 0 8 8 5 19
-3 10 0 22 6 25 5 4 8 13 5 20 -3 8 0 17 5 21 6 3 9 10 6 15 -3 4 2 26 10 49
8 23 14 42 14 44 -1 17 15 87 20 87 4 0 7 8 8 18 3 43 8 62 16 62 4 0 6 4 3 8
-3 5 2 33 10 63 8 30 17 62 19 72 2 10 7 27 10 37 3 10 8 28 10 39 3 12 7 30
10 41 3 11 7 29 10 40 11 45 16 66 21 87 2 12 9 34 14 48 5 14 7 25 5 25 -2 0
0 11 5 25 5 14 12 36 14 48 3 12 8 33 11 47 3 14 8 36 11 49 3 14 8 29 11 34
3 6 7 20 9 31 4 27 12 63 19 86 6 18 11 39 21 89 3 14 7 28 10 33 3 4 7 16 9
25 2 10 11 47 20 83 9 36 18 79 21 95 3 17 9 32 13 35 4 3 8 14 8 25 1 11 4
30 7 43 11 42 17 67 23 97 2 17 9 35 14 41 5 6 6 14 3 17 -3 3 -2 12 2 19 7
11 15 38 11 38 -1 0 -23 -16 -49 -35z"/>
<path d="M4093 26254 c-18 -14 -54 -53 -80 -87 -66 -86 -99 -123 -166 -188
l-57 -56 80 -289 c44 -159 87 -311 95 -339 8 -27 48 -174 90 -325 41 -151 79
-291 85 -310 6 -19 28 -100 50 -180 22 -80 46 -165 54 -190 7 -25 24 -84 37
-132 37 -138 60 -121 117 87 39 141 60 247 77 385 4 30 9 63 10 72 14 75 20
415 11 578 -9 146 -48 411 -76 520 -5 19 -11 49 -14 66 -14 79 -98 324 -125
361 -40 56 -135 70 -188 27z"/>
<path d="M1227 25185 c-176 -46 -330 -315 -438 -763 -37 -152 -46 -314 -23
-414 56 -249 275 -454 639 -598 71 -27 254 -87 290 -94 11 -2 40 -9 65 -16 25
-7 54 -14 65 -16 11 -2 31 -6 45 -9 90 -20 266 -50 349 -60 30 -4 61 -8 70
-10 9 -1 50 -6 91 -10 41 -4 86 -9 100 -10 30 -4 187 -14 320 -20 132 -7 457
-6 511 1 73 9 197 45 210 61 7 8 12 26 12 41 0 27 -20 54 -723 981 -91 119
-221 291 -289 382 -284 374 -316 413 -362 436 -64 31 -66 31 -194 34 -124 3
-170 10 -385 59 -152 35 -281 44 -353 25z"/>
<path d="M23514 23883 c4 -7 9 -22 12 -33 10 -45 13 -56 23 -82 6 -16 9 -28 6
-28 -2 0 2 -17 9 -37 7 -21 12 -46 10 -55 -1 -10 1 -18 5 -18 4 0 8 -6 9 -12
1 -7 3 -24 5 -38 1 -14 6 -30 9 -36 4 -6 10 -26 13 -45 3 -19 13 -59 21 -89 9
-30 18 -66 20 -80 3 -14 7 -33 10 -42 9 -31 16 -63 17 -80 1 -10 6 -18 11 -18
5 0 7 -3 4 -6 -4 -3 -2 -20 4 -37 5 -18 11 -41 12 -52 2 -11 8 -40 15 -65 7
-25 15 -56 17 -70 3 -14 9 -39 15 -56 10 -33 17 -62 26 -109 3 -16 9 -37 14
-46 4 -9 6 -19 2 -22 -3 -4 -1 -13 5 -20 7 -8 9 -16 6 -20 -3 -3 -1 -14 4 -24
6 -10 13 -31 16 -48 14 -73 18 -91 23 -105 4 -8 5 -19 4 -24 -1 -4 3 -14 9
-20 5 -7 7 -16 4 -19 -3 -3 -2 -12 2 -19 4 -7 9 -19 10 -28 2 -8 8 -35 14 -60
7 -25 13 -52 15 -60 2 -8 4 -15 5 -15 1 0 3 -9 5 -20 2 -11 6 -31 10 -45 3
-14 8 -32 10 -40 2 -8 4 -15 5 -15 1 0 3 -9 5 -20 5 -26 13 -59 15 -62 2 -2 3
-11 5 -20 1 -10 5 -25 8 -33 4 -8 8 -26 9 -40 2 -14 7 -31 12 -38 4 -7 6 -16
3 -19 -3 -3 -1 -17 5 -32 5 -14 12 -37 15 -51 8 -42 11 -55 13 -55 2 0 8 -26
16 -65 3 -19 10 -43 15 -52 5 -10 8 -18 5 -18 -2 0 9 -51 25 -112 17 -62 32
-124 35 -138 3 -14 7 -33 10 -42 3 -9 7 -27 10 -40 3 -13 8 -34 11 -48 3 -14
6 -31 6 -37 0 -7 3 -13 7 -13 3 0 7 -14 8 -31 1 -18 6 -37 9 -43 4 -6 8 -15 9
-21 1 -5 5 -25 9 -44 3 -19 8 -38 11 -43 3 -5 7 -19 9 -31 6 -36 16 -80 20
-87 2 -4 7 -22 10 -40 3 -19 15 -67 26 -107 10 -40 21 -83 23 -96 3 -12 5 -22
6 -22 2 0 3 -6 13 -55 3 -14 12 -50 21 -80 8 -30 12 -58 10 -62 -3 -5 -1 -8 5
-8 5 0 8 -8 6 -17 -1 -10 0 -22 4 -28 3 -5 6 -13 7 -17 1 -5 2 -9 4 -10 1 -2
3 -12 5 -23 2 -11 11 -47 19 -80 9 -33 18 -69 20 -80 2 -11 6 -27 10 -35 5
-15 14 -54 21 -95 2 -11 4 -20 5 -20 2 0 6 -16 14 -50 2 -11 5 -22 6 -25 1 -3
3 -9 5 -15 1 -5 3 -12 4 -15 2 -3 4 -14 6 -25 2 -11 6 -31 10 -45 3 -14 8 -36
11 -50 3 -14 9 -42 15 -63 6 -21 12 -50 14 -65 2 -15 7 -38 9 -52 3 -14 8 -36
11 -50 3 -14 8 -43 11 -65 3 -22 12 -61 19 -88 14 -49 15 -51 15 -65 0 -4 37
-8 83 -8 79 0 210 -10 253 -18 12 -2 37 -7 55 -10 19 -3 70 -15 114 -26 44
-12 86 -21 93 -22 6 -1 12 -5 12 -10 0 -6 6 -8 12 -6 7 3 24 -1 37 -8 14 -7
28 -11 33 -8 4 3 8 0 8 -5 0 -6 3 -10 8 -9 4 0 24 -6 44 -16 21 -9 40 -16 43
-16 3 1 13 -6 21 -15 9 -8 20 -13 25 -10 5 4 9 1 9 -5 0 -6 5 -8 10 -5 6 3 10
1 10 -5 0 -6 5 -8 10 -5 6 3 10 2 10 -3 0 -5 18 -17 39 -28 22 -10 37 -22 35
-26 -5 -7 11 -12 29 -9 4 0 7 -7 7 -16 0 -9 3 -14 6 -10 9 9 91 -64 117 -106
10 -15 22 -25 27 -22 6 4 10 -1 10 -9 0 -8 8 -21 18 -28 11 -7 27 -30 37 -50
9 -21 20 -36 24 -34 4 3 13 -10 21 -27 7 -18 16 -34 20 -37 12 -10 90 -170 90
-185 0 -8 5 -15 12 -15 6 0 8 -3 5 -7 -4 -3 -2 -12 4 -20 6 -7 9 -13 6 -13 -3
0 0 -15 8 -34 8 -18 11 -36 8 -40 -4 -3 -2 -6 4 -6 5 0 16 -26 23 -57 7 -32
15 -62 19 -68 4 -5 7 -17 6 -25 -1 -8 3 -26 8 -40 5 -14 11 -36 12 -50 2 -14
6 -36 10 -50 3 -14 8 -45 11 -70 3 -25 7 -56 10 -70 33 -181 38 -713 10 -960
-2 -19 -7 -64 -11 -100 -4 -36 -9 -76 -11 -90 -18 -132 -22 -155 -24 -155 -1
0 -3 -9 -5 -20 -9 -48 -17 -92 -22 -115 -3 -14 -6 -33 -7 -42 0 -10 -3 -18 -6
-18 -3 0 -6 -8 -7 -17 -2 -28 -13 -75 -22 -92 -5 -9 -9 -19 -10 -23 -1 -5 -1
-9 -2 -10 -1 -6 -8 -34 -13 -57 -3 -13 -12 -34 -21 -47 -8 -13 -13 -24 -9 -24
4 0 1 -7 -6 -15 -7 -8 -10 -15 -6 -15 3 0 -8 -23 -24 -50 -17 -28 -30 -53 -30
-56 0 -3 -9 -18 -20 -34 -11 -15 -17 -30 -13 -34 3 -3 2 -6 -4 -6 -9 0 -23
-24 -34 -55 -1 -5 -11 -19 -21 -29 -10 -11 -18 -25 -18 -32 0 -7 -6 -19 -12
-26 -18 -20 -47 -69 -59 -100 -6 -16 -14 -28 -18 -28 -8 0 -34 -51 -31 -59 1
-2 -5 -8 -14 -13 -9 -5 -14 -13 -11 -18 3 -4 -2 -11 -11 -14 -8 -3 -12 -10 -9
-16 3 -5 1 -10 -5 -10 -6 0 -9 -4 -6 -8 3 -5 -4 -16 -15 -26 -11 -9 -25 -30
-31 -46 -5 -17 -14 -30 -19 -30 -5 0 -9 -6 -9 -14 0 -7 -7 -19 -15 -26 -8 -7
-12 -16 -9 -21 3 -5 1 -9 -4 -9 -5 0 -17 -16 -28 -35 -10 -19 -21 -35 -24 -35
-3 0 -14 -16 -24 -35 -11 -19 -23 -35 -28 -35 -5 0 -6 -4 -3 -10 3 -5 1 -10
-5 -10 -6 0 -9 -4 -6 -8 3 -5 -4 -16 -15 -25 -11 -10 -18 -21 -15 -26 5 -8 16
-85 22 -161 7 -91 13 -156 18 -205 6 -56 14 -169 22 -290 2 -44 7 -109 9 -145
26 -400 22 -1128 -10 -1570 -3 -52 -8 -120 -10 -150 -7 -104 -18 -215 -40
-425 -2 -22 -7 -62 -10 -90 -2 -27 -8 -68 -11 -90 -3 -22 -8 -51 -10 -65 -7
-58 -23 -172 -30 -215 -3 -16 -7 -43 -9 -60 -2 -16 -6 -41 -10 -55 -3 -14 -8
-38 -10 -55 -9 -61 -21 -130 -30 -180 -9 -45 -46 -227 -52 -250 -2 -11 -6 -31
-8 -45 -2 -14 -12 -56 -21 -95 -9 -38 -18 -79 -19 -90 -2 -11 -4 -20 -5 -20
-1 0 -3 -7 -5 -15 -1 -8 -8 -33 -13 -55 -6 -22 -14 -55 -17 -74 -3 -19 -10
-43 -16 -53 -6 -11 -8 -22 -5 -25 3 -4 2 -11 -3 -17 -5 -6 -12 -28 -15 -49 -3
-21 -11 -47 -17 -58 -5 -11 -7 -24 -4 -29 3 -5 1 -11 -4 -14 -8 -6 -26 -73
-23 -88 1 -5 -2 -8 -7 -8 -5 0 -8 -8 -6 -17 1 -10 -1 -22 -5 -28 -7 -9 -22
-57 -25 -80 -1 -5 -5 -18 -9 -27 -4 -9 -9 -22 -10 -30 -2 -7 -6 -21 -10 -30
-4 -9 -9 -22 -10 -30 -2 -7 -6 -20 -9 -28 -11 -26 -31 -105 -29 -112 1 -5 -3
-8 -9 -8 -6 0 -9 -7 -5 -15 3 -8 0 -15 -6 -15 -6 0 -8 -3 -5 -7 4 -3 2 -11 -3
-18 -5 -6 -11 -20 -13 -31 -1 -10 -5 -23 -8 -29 -7 -12 -21 -68 -19 -74 1 -2
-3 -7 -9 -10 -6 -4 -12 -16 -14 -26 -1 -11 -5 -24 -8 -30 -9 -15 -29 -79 -28
-89 0 -5 -4 -12 -10 -15 -6 -4 -12 -16 -14 -26 -2 -11 -10 -33 -17 -50 -7 -16
-14 -33 -15 -37 -2 -5 -4 -11 -5 -15 -1 -5 -2 -11 -1 -15 0 -5 -4 -8 -9 -8 -5
0 -9 -3 -9 -7 1 -5 -4 -24 -12 -43 -7 -19 -12 -38 -11 -42 1 -5 -3 -8 -9 -8
-5 0 -7 -4 -4 -10 3 -5 1 -10 -5 -10 -6 0 -9 -4 -5 -9 3 -5 1 -12 -5 -16 -6
-4 -8 -11 -5 -16 4 -5 1 -9 -4 -9 -6 0 -10 -3 -9 -8 1 -4 -5 -20 -12 -37 -7
-16 -13 -33 -12 -37 1 -3 -5 -11 -13 -18 -7 -6 -11 -18 -8 -26 3 -8 0 -14 -7
-14 -6 0 -8 -5 -5 -10 3 -5 2 -10 -2 -10 -10 0 -50 -90 -46 -102 2 -5 -2 -8
-7 -8 -5 0 -9 -3 -8 -7 2 -10 -31 -80 -55 -115 -10 -16 -15 -28 -10 -28 10 0
38 31 84 90 18 25 36 47 39 50 3 3 18 23 35 45 16 22 36 45 45 52 8 7 11 13 7
13 -4 0 5 12 20 26 15 14 21 23 13 19 -8 -4 -1 4 15 19 17 14 27 25 23 26 -8
0 12 27 50 66 13 13 20 24 18 24 -6 0 17 31 47 62 9 10 14 18 10 18 -4 0 2 7
13 16 10 8 12 12 4 9 -8 -4 -1 5 15 20 17 14 23 24 15 20 -13 -6 -13 -5 0 7
20 17 67 80 69 93 1 6 9 14 17 18 8 4 14 15 14 22 0 8 5 15 12 15 6 0 9 3 5 6
-3 4 4 15 16 25 12 10 19 18 15 19 -5 0 2 11 13 24 12 13 20 26 18 28 -3 3 21
35 48 63 7 7 9 15 6 19 -4 3 -1 6 5 6 7 0 12 6 12 14 0 8 7 17 16 20 8 3 13
10 10 15 -4 5 -2 11 2 13 9 3 66 88 67 98 0 3 10 16 22 29 12 13 20 28 17 33
-3 4 -2 8 3 8 4 0 17 12 27 27 13 17 14 24 5 19 -8 -4 -6 -1 3 7 10 8 15 17
11 20 -3 4 -1 7 5 7 7 0 12 6 12 14 0 8 7 17 16 20 8 3 13 10 10 15 -3 4 3 16
14 26 11 10 20 27 20 37 0 11 4 17 9 13 9 -5 22 20 20 39 0 5 3 12 8 15 13 10
48 65 45 74 -1 4 3 7 9 7 5 0 8 4 4 9 -3 6 1 13 9 18 8 4 16 15 18 23 2 8 5
17 8 20 18 18 50 71 39 65 -8 -5 -4 3 7 16 12 13 25 34 29 47 3 12 10 22 15
22 8 0 23 38 21 53 -1 4 3 7 7 7 10 0 37 50 34 63 -1 4 2 7 7 7 5 0 13 10 17
23 4 12 17 38 30 58 13 20 20 40 17 43 -4 3 -1 6 6 6 7 0 10 4 7 9 -4 5 -2 11
3 13 11 4 96 170 93 181 -1 4 3 7 9 7 5 0 7 5 4 10 -3 6 -2 10 3 10 9 0 25 37
23 53 -1 4 4 7 10 7 5 0 7 5 4 10 -3 6 -1 10 6 10 7 0 10 3 6 6 -3 4 0 13 8
21 8 8 15 23 15 34 0 10 4 19 9 19 8 0 24 37 22 53 -1 4 4 7 10 7 5 0 7 5 4
10 -3 6 -1 10 4 10 6 0 11 7 11 15 0 18 20 57 35 67 6 4 6 8 1 8 -5 0 -4 6 2
13 6 6 10 14 11 17 0 3 10 28 22 55 12 28 21 52 20 54 -2 2 1 7 6 10 12 9 44
73 33 66 -5 -3 2 13 15 37 13 23 22 45 19 50 -3 4 0 8 6 8 6 0 8 5 5 10 -3 6
-1 10 4 10 6 0 11 6 11 13 0 6 19 55 41 107 53 122 62 144 63 150 2 9 28 74
47 118 11 23 21 50 23 60 1 9 8 28 13 42 6 14 11 28 12 33 0 4 7 20 16 37 8
16 17 37 18 47 2 10 10 32 16 48 7 17 14 35 16 40 1 6 7 21 12 35 6 14 9 28 6
33 -2 4 0 7 5 7 5 0 9 7 10 15 1 8 3 22 4 30 1 8 5 15 10 15 4 0 7 3 6 8 -1 4
6 32 17 62 20 59 26 78 27 98 1 6 4 12 8 12 4 0 7 7 8 15 1 8 3 22 4 30 1 8 6
15 11 15 6 0 8 3 4 6 -3 3 1 25 10 47 16 46 24 76 25 95 1 6 4 12 8 12 4 0 7
6 8 13 4 39 11 67 21 86 7 12 9 26 6 31 -3 5 -1 11 4 14 4 3 12 20 16 38 4 18
9 40 11 48 3 8 5 23 6 33 1 9 5 17 9 17 4 0 6 8 5 17 -2 10 3 33 11 50 7 18
11 33 9 33 -3 0 1 15 8 33 7 17 11 38 9 45 -3 6 0 12 5 12 6 0 9 8 7 18 -1 9
2 23 8 30 5 6 7 12 4 12 -4 0 0 18 8 39 7 22 11 42 8 44 -3 3 -1 12 3 19 5 7
9 21 10 31 1 9 2 18 4 20 2 2 4 14 13 57 3 14 10 45 16 70 15 68 24 113 25
133 0 9 3 17 6 17 3 0 6 8 6 18 1 16 8 58 18 108 2 12 7 39 11 60 4 22 9 50
11 64 3 14 6 36 9 50 2 14 7 43 11 65 4 22 8 49 10 60 1 11 3 20 4 20 1 0 3
18 5 40 3 22 7 56 10 75 7 43 13 93 19 145 2 22 7 65 11 95 7 57 11 86 20 180
27 285 38 548 37 865 -1 269 -10 524 -27 740 -3 44 -8 109 -11 145 -2 36 -6
81 -8 100 -14 120 -18 159 -22 195 -5 58 -12 116 -18 150 -2 17 -8 55 -11 85
-4 30 -9 69 -12 85 -10 65 -12 81 -17 115 -10 67 -28 175 -33 200 -2 14 -6 36
-8 50 -2 14 -4 26 -5 28 -1 1 -3 10 -5 20 -1 16 -5 37 -21 117 -3 17 -7 39 -9
50 -2 11 -4 20 -5 20 -2 0 -11 56 -13 78 -1 9 -4 17 -7 17 -4 0 -6 10 -5 23 1
12 -2 27 -6 33 -5 6 -10 24 -11 40 -1 16 -4 34 -7 39 -3 6 -7 21 -9 35 -2 14
-14 68 -28 120 -14 52 -26 105 -27 118 0 12 -4 22 -7 22 -7 0 -8 8 -11 55 -1
14 -4 25 -8 25 -4 0 -8 11 -9 24 -1 13 -9 45 -17 71 -9 26 -17 55 -18 66 -1
10 -4 19 -7 19 -4 0 -7 6 -8 13 -1 21 -12 65 -22 92 -5 14 -7 25 -4 25 2 0 -2
13 -11 30 -8 16 -15 31 -14 32 2 5 -14 63 -20 73 -3 6 -6 15 -7 21 -1 6 -19
65 -40 130 -21 66 -39 121 -39 124 -1 3 -4 12 -7 20 -16 42 -21 56 -24 65 -1
6 -8 24 -15 40 -7 17 -11 36 -10 43 1 6 -3 12 -9 12 -5 0 -9 3 -8 8 2 10 -13
62 -30 102 -9 19 -17 40 -18 45 -5 20 -29 80 -34 85 -6 6 -12 30 -13 48 0 6
-4 12 -9 12 -5 0 -6 5 -3 10 3 6 1 10 -6 10 -7 0 -9 3 -6 6 3 4 1 16 -5 28 -7
11 -13 26 -14 32 -1 6 -12 33 -24 60 -13 27 -25 57 -26 67 -2 10 -11 28 -19
41 -8 12 -12 26 -8 29 3 4 1 7 -5 7 -7 0 -11 3 -10 8 2 9 -7 31 -50 122 -20
41 -36 77 -37 80 -9 42 -17 60 -25 60 -6 0 -10 7 -10 15 0 17 -112 249 -123
253 -4 2 -4 9 -1 14 4 6 -1 17 -11 25 -11 7 -16 13 -12 13 4 0 0 11 -9 25 -9
14 -12 25 -8 25 5 0 1 5 -9 11 -9 6 -14 15 -11 21 4 6 -1 17 -10 24 -10 7 -17
15 -17 18 2 11 -81 171 -92 177 -5 4 -6 12 -3 18 4 6 2 11 -3 11 -6 0 -11 6
-11 14 0 8 -5 16 -11 18 -5 2 -11 10 -12 18 -1 8 -10 26 -20 40 -9 13 -17 30
-17 37 0 7 -4 13 -10 13 -5 0 -10 7 -10 15 0 8 -5 15 -11 15 -5 0 -7 5 -4 10
3 6 1 10 -5 10 -6 0 -8 5 -5 10 3 6 2 10 -3 10 -4 0 -14 16 -22 35 -8 19 -18
35 -22 35 -5 0 -7 4 -4 9 3 5 -1 14 -9 21 -8 7 -15 19 -15 26 0 8 -4 14 -9 14
-5 0 -14 14 -21 30 -7 17 -17 30 -22 30 -5 0 -7 4 -4 9 4 5 -5 22 -18 38 -13
15 -26 38 -30 51 -4 12 -12 22 -17 22 -6 0 -8 4 -5 9 3 5 -1 12 -10 15 -8 3
-13 10 -9 15 3 6 0 13 -7 18 -12 7 -24 27 -62 98 -6 11 -14 22 -17 25 -3 3
-19 25 -34 50 -15 25 -32 48 -37 51 -5 3 -8 8 -7 10 3 4 -31 60 -41 69 -4 3
-21 29 -40 58 -18 28 -37 52 -42 52 -5 0 -6 5 -3 10 3 6 1 10 -5 10 -6 0 -8 5
-5 10 3 6 1 10 -4 10 -6 0 -11 6 -11 14 0 8 -7 16 -15 20 -8 3 -15 13 -15 21
0 9 -4 13 -10 10 -5 -3 -10 0 -10 8 0 7 -9 23 -20 35 -12 12 -18 22 -15 22 5
0 -17 29 -43 56 -7 8 -11 14 -7 14 3 0 -6 11 -21 25 -15 14 -23 25 -18 25 5 0
-2 10 -16 21 -14 11 -18 18 -10 14 8 -4 6 2 -5 12 -11 10 -31 35 -45 55 -14
21 -29 38 -33 38 -5 0 -5 5 -2 10 3 6 2 10 -4 10 -5 0 -13 9 -16 21 -4 11 -9
18 -13 15 -3 -3 -14 9 -25 27 -11 17 -28 38 -38 45 -11 7 -19 20 -19 28 0 8
-4 14 -10 14 -5 0 -10 5 -10 12 0 6 -17 27 -37 46 -21 20 -31 32 -23 27 8 -4
6 1 -5 12 -11 11 -36 40 -55 63 -19 24 -43 51 -52 61 -10 11 -16 19 -13 19 2
0 -14 18 -35 40 -22 23 -40 43 -40 46 0 3 -16 22 -35 42 -76 81 -112 122 -108
122 3 0 -15 20 -40 44 -25 25 -42 47 -39 50 3 3 -2 6 -11 6 -9 0 -17 5 -17 11
0 6 -39 51 -87 100 -253 257 -325 329 -334 329 -6 0 -8 4 -5 8 3 5 -8 16 -25
26 -16 9 -27 22 -24 27 4 5 2 9 -4 9 -5 0 -34 25 -65 55 -30 30 -59 55 -64 55
-5 0 -26 19 -47 43 -21 23 -35 36 -31 30z"/>
<path d="M24703 18703 c-4 -1 -44 -4 -88 -6 -107 -6 -198 -18 -247 -33 -9 -3
-27 -7 -40 -10 -13 -3 -27 -6 -33 -8 -5 -2 -27 -6 -47 -11 -21 -4 -38 -11 -38
-15 0 -4 -12 -7 -27 -7 -15 0 -29 -5 -31 -11 -2 -6 -10 -8 -18 -5 -8 3 -14 0
-14 -7 0 -6 -4 -9 -9 -6 -5 3 -26 -1 -47 -10 -51 -21 -77 -31 -89 -34 -5 -1
-19 -7 -30 -13 -11 -6 -22 -12 -25 -12 -3 0 -41 -18 -85 -40 -94 -45 -84 -41
-112 -50 -13 -4 -23 -11 -23 -16 0 -5 -7 -9 -15 -9 -8 0 -15 -4 -15 -10 0 -5
-3 -9 -7 -8 -15 3 -83 -31 -83 -42 0 -6 -4 -8 -10 -5 -5 3 -10 1 -10 -6 0 -7
-3 -10 -6 -6 -4 3 -25 -6 -48 -21 -22 -15 -53 -34 -68 -41 -16 -8 -28 -18 -28
-23 0 -4 -7 -8 -15 -8 -8 0 -15 -5 -15 -11 0 -5 -5 -7 -10 -4 -6 3 -13 -1 -16
-9 -3 -9 -10 -14 -14 -11 -4 3 -11 -2 -14 -11 -3 -8 -10 -13 -15 -10 -5 3 -21
-6 -35 -19 -15 -14 -31 -25 -36 -25 -5 0 -14 -8 -19 -17 -6 -10 -11 -15 -11
-11 0 7 -42 -22 -120 -83 -13 -10 -29 -19 -34 -19 -5 0 -6 -3 -3 -7 4 -3 -11
-17 -33 -30 -22 -13 -40 -29 -40 -34 0 -6 -4 -7 -10 -4 -5 3 -10 1 -10 -5 0
-5 -15 -19 -32 -30 -18 -11 -31 -23 -29 -27 2 -5 -6 -13 -19 -20 -12 -6 -26
-17 -31 -25 -5 -7 -14 -13 -21 -13 -7 -1 -12 -6 -10 -13 1 -7 -4 -12 -10 -12
-7 0 -37 -26 -67 -57 -30 -32 -48 -49 -40 -38 7 11 -15 -9 -51 -45 -35 -36
-93 -94 -129 -129 -36 -36 -59 -61 -51 -56 8 4 -16 -22 -53 -59 -37 -36 -65
-66 -62 -66 3 0 -14 -18 -36 -40 -23 -22 -38 -40 -35 -40 4 0 1 -6 -6 -14 -7
-8 -16 -12 -20 -9 -5 2 -8 -3 -8 -11 0 -8 -8 -20 -17 -25 -10 -6 -14 -11 -10
-11 4 0 -3 -11 -17 -24 -15 -13 -26 -28 -26 -34 0 -7 -11 -19 -25 -28 -14 -9
-23 -19 -20 -22 3 -3 -10 -19 -28 -35 -17 -17 -25 -26 -17 -22 14 8 -28 -44
-60 -73 -13 -12 -13 -13 0 -7 8 4 4 -3 -9 -14 -13 -12 -20 -21 -16 -21 5 0 -5
-12 -21 -26 -16 -15 -22 -23 -14 -19 8 3 4 -3 -9 -14 -13 -12 -20 -21 -17 -21
8 0 -10 -23 -36 -47 -9 -9 -15 -20 -12 -25 3 -4 0 -8 -5 -8 -6 0 -11 -7 -11
-15 0 -8 -4 -15 -8 -15 -5 0 -15 -12 -23 -27 -16 -32 -26 -45 -54 -75 -12 -13
-14 -18 -5 -14 8 4 6 0 -4 -8 -11 -9 -16 -16 -10 -16 5 0 4 -4 -2 -8 -6 -4
-20 -24 -31 -44 -11 -21 -23 -35 -27 -31 -3 3 -6 -3 -6 -15 0 -11 -8 -26 -17
-31 -10 -6 -15 -11 -10 -11 9 0 -22 -50 -43 -68 -13 -12 -13 -13 0 -6 11 6 10
2 -2 -13 -10 -11 -18 -23 -18 -27 0 -9 -43 -70 -53 -74 -4 -2 -5 -8 -2 -12 3
-5 -3 -18 -15 -30 -11 -11 -20 -21 -20 -22 -3 -22 -14 -48 -22 -48 -5 0 -6 -4
-3 -10 3 -5 1 -10 -5 -10 -6 0 -9 -4 -5 -9 3 -5 -2 -16 -10 -24 -8 -9 -15 -20
-15 -26 0 -6 -5 -11 -12 -11 -6 0 -9 -3 -5 -6 8 -9 -21 -64 -34 -64 -5 0 -9
-6 -7 -12 3 -17 -24 -78 -35 -78 -5 0 -6 -4 -3 -9 3 -5 -1 -11 -9 -15 -8 -3
-12 -12 -9 -21 4 -9 -1 -17 -11 -21 -9 -4 -14 -13 -11 -20 3 -7 -1 -20 -9 -28
-8 -7 -11 -16 -8 -20 4 -3 1 -6 -5 -6 -7 0 -11 -3 -10 -7 0 -5 -8 -28 -20 -53
-12 -25 -22 -51 -22 -58 0 -7 -5 -10 -12 -6 -6 4 -8 3 -5 -3 6 -9 -12 -51 -38
-93 -5 -8 -10 -19 -11 -25 0 -5 -2 -16 -2 -23 -1 -7 -6 -10 -12 -7 -6 3 -7 -1
-4 -9 3 -9 1 -16 -5 -16 -6 0 -8 -6 -5 -14 3 -7 -2 -21 -11 -30 -9 -9 -13 -16
-9 -16 3 0 2 -6 -4 -12 -6 -7 -10 -15 -10 -18 0 -19 -15 -59 -21 -56 -4 3 -8
-7 -9 -22 -1 -14 -7 -29 -13 -33 -6 -3 -11 -10 -10 -15 1 -20 -12 -54 -20 -54
-5 0 -6 -7 -3 -15 4 -8 2 -15 -3 -15 -5 0 -9 -10 -10 -22 -1 -11 -8 -25 -15
-29 -7 -5 -9 -9 -4 -9 5 0 4 -6 -2 -12 -6 -7 -10 -15 -10 -18 2 -10 -25 -85
-35 -97 -5 -7 -6 -13 -2 -13 4 0 2 -7 -5 -15 -7 -8 -9 -15 -5 -15 4 0 1 -7 -6
-17 -8 -9 -13 -17 -11 -17 7 -2 -10 -56 -18 -56 -4 0 -7 -6 -7 -12 2 -23 -25
-108 -34 -108 -5 0 -6 -7 -3 -15 4 -8 1 -15 -6 -15 -6 0 -9 -4 -6 -8 7 -11
-15 -82 -25 -82 -5 0 -6 -6 -3 -14 3 -8 1 -17 -5 -20 -6 -4 -8 -13 -4 -21 3
-8 0 -15 -7 -15 -6 0 -9 -4 -6 -9 3 -5 -3 -35 -14 -67 -12 -33 -20 -60 -20
-61 0 -2 0 -4 -1 -5 0 -2 -2 -16 -4 -33 -4 -32 -12 -70 -15 -70 -2 0 -3 -10
-16 -120 -16 -143 -7 -350 20 -462 20 -78 21 -82 29 -103 15 -39 31 -96 29
-102 -1 -5 2 -8 6 -8 5 0 19 -24 32 -52 13 -29 42 -80 64 -113 22 -33 40 -63
38 -67 -1 -5 1 -7 6 -5 4 1 7 0 7 -3 0 -7 58 -62 85 -80 13 -8 28 -21 36 -27
7 -7 20 -13 28 -13 9 0 16 -5 16 -11 0 -5 5 -7 10 -4 6 3 10 1 10 -6 0 -7 3
-9 6 -6 4 3 16 1 28 -5 11 -7 24 -11 29 -10 4 1 7 -3 7 -9 0 -5 4 -7 10 -4 5
3 19 1 30 -5 12 -6 31 -14 43 -16 32 -7 51 -12 57 -14 3 -1 13 -2 23 -1 9 1
17 -1 17 -6 0 -4 15 -9 33 -10 17 -1 55 -4 82 -7 94 -8 385 -5 385 5 0 4 12 7
28 7 25 -1 76 7 132 19 14 3 37 6 53 6 15 1 27 4 27 7 0 3 14 7 31 8 17 1 39
7 49 12 10 6 26 7 34 4 9 -4 16 -1 16 6 0 7 6 10 14 7 8 -3 17 -3 20 1 4 3 12
7 19 8 32 7 54 13 80 23 15 6 31 10 35 9 4 -1 17 3 28 10 12 6 24 8 28 5 3 -3
6 -2 6 4 0 5 7 10 15 11 8 1 22 3 30 4 8 1 15 5 15 10 0 5 5 6 10 3 6 -3 10
-2 10 3 0 5 6 9 13 9 15 0 125 52 144 68 7 6 19 16 27 23 8 6 20 12 26 12 6 0
9 4 5 9 -3 5 4 12 15 16 11 3 20 10 20 15 0 5 9 12 20 15 11 4 18 11 15 16 -4
5 -1 9 5 9 6 0 17 6 25 13 7 6 39 35 70 62 31 28 72 65 91 83 19 18 34 29 34
25 1 -4 7 3 15 17 8 14 14 21 15 17 0 -12 440 429 440 442 0 7 4 10 8 7 5 -3
15 6 22 19 7 13 17 22 22 19 4 -3 8 -1 8 5 0 6 24 34 53 63 28 29 41 43 26 33
-14 -11 -6 -2 18 20 24 22 43 45 43 52 0 6 5 15 12 19 7 5 9 2 4 -7 -4 -8 -1
-5 8 5 9 11 27 32 41 48 14 15 25 32 25 37 0 5 9 13 20 16 11 4 18 11 15 16
-4 5 -1 9 5 9 6 0 15 11 22 25 6 13 14 23 17 20 4 -2 17 12 30 31 13 19 27 34
32 34 5 0 9 5 9 11 0 6 12 24 28 39 43 47 51 57 45 64 -4 3 2 6 12 6 10 0 16
3 13 6 -3 3 4 15 16 28 11 12 35 40 51 61 17 21 36 44 43 51 7 8 11 14 7 14
-3 0 5 11 19 24 15 13 26 28 26 34 0 5 7 13 16 16 9 4 14 9 11 12 -3 3 4 17
16 30 37 39 52 58 51 64 -1 3 7 11 17 18 11 7 25 25 33 40 8 15 24 37 36 50
11 12 19 22 16 22 -3 0 6 12 19 26 14 15 25 34 25 42 0 8 3 12 7 9 6 -7 68 75
79 106 4 9 10 17 15 17 5 0 9 5 9 10 0 6 7 18 16 28 20 22 78 105 79 112 0 3
7 13 15 23 25 29 34 42 45 59 6 9 31 48 56 85 25 37 73 111 107 163 35 52 67
102 74 111 6 10 10 20 9 24 -1 4 6 13 16 21 10 7 14 14 8 14 -7 0 -7 3 0 8 12
9 55 69 55 77 0 4 13 26 30 49 16 24 26 46 23 50 -4 3 -1 6 5 6 7 0 12 7 12
15 0 8 3 15 8 15 4 0 16 17 27 37 11 21 48 85 82 142 34 58 60 108 57 113 -3
4 -1 8 3 8 17 0 66 138 78 216 2 16 9 49 15 73 6 24 12 55 14 70 2 14 9 60 16
101 6 41 13 95 15 120 2 25 6 59 9 75 9 55 18 258 18 405 -1 171 -7 263 -27
415 -11 75 -47 240 -56 251 -5 6 -7 13 -4 16 13 13 -91 241 -121 265 -9 6 -14
14 -13 18 1 4 -18 28 -42 52 -61 63 -216 132 -351 158 -57 11 -189 23 -205 18z"/>
<path d="M35135 18209 c-22 -12 -161 -92 -310 -177 -148 -85 -364 -209 -480
-275 -254 -145 -224 -128 -475 -272 -113 -65 -223 -128 -245 -141 -22 -12
-233 -133 -470 -269 -236 -136 -448 -257 -470 -269 -48 -26 -799 -457 -803
-461 -4 -4 -9 -36 -16 -110 -10 -95 -16 -153 -21 -195 -2 -19 -7 -57 -10 -85
-5 -48 -21 -176 -31 -240 -2 -16 -11 -77 -19 -135 -8 -58 -16 -114 -18 -125
-3 -11 -8 -42 -11 -68 -4 -27 -9 -59 -12 -70 -2 -12 -7 -42 -10 -67 -3 -25 -8
-48 -10 -51 -1 -3 -6 -27 -9 -53 -6 -44 -6 -47 12 -38 25 14 174 82 178 82 2
0 41 17 87 39 45 21 117 53 158 71 41 18 113 50 158 71 46 22 85 39 87 39 2 0
36 15 77 34 40 19 181 82 313 141 132 59 267 120 300 135 33 16 121 55 195 88
74 33 167 74 205 92 114 52 249 112 545 245 102 45 220 99 263 119 43 20 80
36 82 36 2 0 39 16 82 36 43 20 103 47 133 61 109 48 176 78 235 108 63 32 60
27 80 128 3 16 14 66 24 110 20 87 60 275 67 317 2 14 11 57 19 95 8 39 28
151 45 250 17 99 33 191 35 205 3 14 7 45 11 70 3 25 7 52 9 60 2 8 7 38 10
65 3 28 8 61 10 75 10 53 16 101 30 225 3 28 8 67 11 88 3 20 4 37 2 37 -2 0
-21 -10 -43 -21z"/>
<path d="M2225 18128 c2 -7 6 -40 9 -73 6 -70 31 -269 41 -325 2 -14 7 -45 10
-70 10 -78 82 -503 90 -530 3 -8 7 -32 11 -54 3 -21 8 -48 10 -60 12 -54 26
-123 30 -146 15 -83 87 -407 93 -419 10 -20 54 -42 280 -141 40 -17 105 -46
145 -65 39 -18 172 -78 296 -133 124 -55 257 -114 295 -132 39 -18 88 -40 110
-50 22 -9 131 -58 243 -109 192 -86 561 -253 647 -291 43 -19 534 -240 601
-270 22 -10 148 -67 280 -125 131 -59 245 -112 252 -117 24 -20 25 2 8 105
-10 56 -20 111 -22 122 -14 83 -47 302 -59 400 -2 11 -8 56 -14 100 -6 44 -13
100 -15 124 -3 25 -8 63 -11 85 -3 23 -7 66 -10 96 -13 159 -18 196 -24 202
-3 3 -24 16 -46 28 -40 22 -1265 723 -1720 985 -132 76 -256 146 -275 157 -19
11 -50 28 -69 39 -34 20 -271 157 -341 197 -19 10 -217 124 -439 251 -222 127
-405 231 -407 231 -2 0 -2 -6 1 -12z"/>
<path d="M34415 15636 c-132 -45 -424 -145 -650 -221 -225 -76 -480 -163 -565
-192 -85 -30 -166 -56 -179 -59 -14 -3 -28 -7 -33 -10 -6 -4 -491 -169 -1158
-394 -220 -74 -207 -67 -213 -108 -3 -21 -9 -48 -12 -62 -3 -14 -8 -35 -11
-48 -2 -12 -14 -62 -25 -110 -12 -48 -22 -94 -24 -102 -4 -21 -55 -221 -62
-244 -5 -17 -1 -18 58 -12 34 4 65 9 68 10 3 2 31 7 61 11 30 3 62 8 70 10 13
3 56 10 125 20 11 2 34 6 50 8 17 3 50 9 75 12 25 4 54 9 65 11 11 2 40 7 65
10 25 3 54 8 65 10 35 7 69 13 115 19 25 3 81 12 125 20 44 8 98 17 120 20 56
8 155 24 185 30 14 3 43 7 65 10 22 3 51 7 65 9 14 3 43 7 65 11 22 3 105 16
185 30 80 13 165 27 190 30 25 3 52 8 60 10 8 2 35 6 60 9 25 3 56 8 70 11 33
7 67 13 115 19 22 4 51 8 65 11 14 3 42 7 62 9 21 3 63 9 95 15 32 5 74 12 93
15 19 3 44 7 55 10 11 2 40 7 65 10 25 3 55 8 67 10 11 3 43 8 70 12 26 5 51
9 56 10 4 1 11 2 16 3 5 0 11 9 14 19 3 9 30 82 60 162 101 264 220 613 297
870 17 58 35 115 40 127 5 12 6 24 2 26 -4 3 -115 -32 -247 -77z"/>
<path d="M2747 15581 c8 -25 28 -89 43 -141 94 -316 339 -1004 364 -1021 5 -4
29 -10 55 -14 25 -3 55 -8 66 -10 26 -5 104 -17 130 -20 33 -4 93 -14 240 -39
50 -9 108 -18 130 -21 22 -3 56 -8 75 -11 19 -4 47 -8 63 -10 15 -2 39 -6 55
-9 15 -3 43 -8 62 -11 19 -3 87 -14 150 -24 63 -10 138 -22 165 -25 28 -4 57
-8 65 -10 18 -5 30 -7 240 -40 91 -14 176 -28 190 -31 14 -2 48 -7 75 -10 28
-3 53 -7 56 -9 3 -2 28 -7 55 -10 27 -4 56 -8 64 -11 8 -2 40 -6 70 -10 30 -3
58 -7 61 -9 3 -2 28 -7 55 -10 27 -4 56 -8 64 -10 8 -3 38 -7 65 -10 28 -3 57
-8 65 -10 8 -3 33 -7 55 -10 35 -6 308 -48 373 -59 12 -2 22 0 22 3 0 3 -20
87 -44 186 -24 99 -57 237 -72 308 -28 123 -30 128 -59 137 -16 5 -136 45
-265 89 -129 44 -408 138 -620 210 -212 71 -599 202 -860 291 -261 89 -547
185 -635 215 -88 30 -248 84 -355 120 -107 37 -213 72 -236 79 l-41 13 14 -46z"/>
<path d="M33267 13623 c-1 0 -200 -4 -442 -7 -485 -7 -1099 -16 -1327 -20 -81
-1 -149 -4 -151 -7 -3 -2 -16 -44 -31 -94 -15 -49 -52 -165 -82 -257 -31 -92
-53 -172 -50 -176 3 -5 27 -12 53 -15 58 -8 94 -14 198 -32 44 -8 98 -17 120
-20 22 -3 63 -10 90 -15 28 -5 212 -37 410 -70 198 -33 371 -62 385 -65 74
-13 159 -27 190 -30 19 -2 44 -7 56 -9 12 -3 39 -8 60 -11 21 -4 50 -8 64 -11
14 -2 41 -7 60 -10 19 -2 58 -9 85 -14 28 -6 68 -12 90 -16 22 -3 47 -7 55 -9
8 -2 33 -7 55 -10 23 -3 52 -8 65 -11 14 -3 48 -7 75 -10 l50 -6 91 149 c50
82 104 172 120 201 16 29 34 61 39 70 13 22 74 133 113 202 43 79 152 297 152
305 0 5 -588 4 -593 -2z"/>
<path d="M3540 13533 c0 -11 142 -282 255 -488 41 -74 150 -258 211 -356 l54
-86 52 8 c29 5 69 11 88 14 20 3 47 8 60 10 14 3 41 8 60 11 19 2 58 9 85 14
28 5 64 12 80 14 17 3 154 26 305 51 151 26 287 48 302 50 15 2 53 9 85 14 32
6 76 13 98 16 22 3 51 8 64 11 24 5 572 97 646 108 133 21 236 43 235 51 0 11
-88 288 -101 320 -4 11 -20 62 -35 113 -27 90 -28 92 -58 93 -129 3 -504 9
-826 13 -212 3 -560 8 -775 11 -710 11 -885 12 -885 8z"/>
<path d="M31011 12608 c-5 -13 -44 -110 -86 -216 -43 -106 -76 -194 -74 -196
2 -2 72 -38 154 -81 83 -43 191 -99 240 -125 258 -135 411 -215 415 -215 3 0
12 -5 20 -10 8 -5 44 -25 80 -43 36 -19 130 -68 210 -109 80 -42 191 -100 246
-129 56 -30 108 -54 115 -54 12 0 83 71 225 226 90 97 304 354 304 364 0 7 -7
9 -980 330 -371 122 -684 225 -695 230 -30 13 -148 50 -157 50 -5 0 -12 -10
-17 -22z"/>
<path d="M6020 12424 c-190 -63 -589 -196 -886 -294 -298 -99 -553 -184 -568
-190 l-27 -10 28 -37 c15 -21 30 -40 33 -43 3 -3 25 -30 50 -60 25 -30 47 -57
50 -60 3 -3 34 -39 70 -80 66 -77 128 -144 235 -256 l61 -64 44 23 c25 13 113
58 195 101 83 43 206 107 275 143 69 35 170 88 225 117 55 29 177 93 270 141
94 48 197 102 230 120 33 18 102 54 153 79 50 26 92 51 92 55 0 19 -167 425
-176 427 -5 1 -164 -49 -354 -112z"/>
<path d="M30623 11698 c-26 -57 -106 -220 -179 -363 -120 -238 -147 -290 -222
-425 -14 -25 -36 -65 -50 -90 -13 -25 -49 -86 -78 -137 -30 -51 -54 -96 -54
-102 0 -5 -4 -11 -8 -13 -4 -1 -38 -55 -76 -118 -83 -141 -102 -171 -238 -384
-60 -93 -107 -170 -105 -172 7 -8 359 89 525 145 477 159 877 356 1307 644
104 69 346 250 363 270 13 15 41 -6 -558 427 -449 324 -465 336 -532 386 l-48
35 -47 -103z"/>
<path d="M6660 11655 c-35 -25 -75 -54 -89 -64 -32 -24 -490 -355 -548 -396
-58 -42 -393 -285 -421 -306 -27 -21 -33 -15 113 -125 163 -123 539 -374 560
-374 2 0 30 -15 62 -34 350 -202 806 -388 1231 -500 199 -53 222 -58 222 -51
0 2 -35 59 -77 125 -314 487 -564 924 -797 1395 -74 149 -144 294 -156 323
-12 28 -26 52 -29 52 -4 0 -36 -20 -71 -45z"/>
</g>
</svg>
